<?xml version="1.0" encoding="UTF-8"?><svg xmlns="http://www.w3.org/2000/svg" width="568.4" height="568.84" xmlns:xlink="http://www.w3.org/1999/xlink" viewBox="0 0 568.4 568.84"><defs><linearGradient id="linear-gradient" x1="152.8" y1="284.14" x2="415.71" y2="284.14" gradientUnits="userSpaceOnUse"><stop offset="0" stop-color="#7f00ff"/><stop offset=".5" stop-color="#fff" stop-opacity="0"/><stop offset="1" stop-color="#7fff00"/></linearGradient><linearGradient id="linear-gradient-2" x1="284.2" y1="403.23" x2="284.42" y2="168.64" gradientUnits="userSpaceOnUse"><stop offset="0" stop-color="aqua"/><stop offset=".5" stop-color="#fff" stop-opacity="0"/><stop offset="1" stop-color="red"/></linearGradient><linearGradient id="linear-gradient-3" x1="380.65" y1="338.93" x2="184.81" y2="227.55" gradientUnits="userSpaceOnUse"><stop offset="0" stop-color="lime"/><stop offset=".5" stop-color="#fff" stop-opacity="0"/><stop offset="1" stop-color="#f0f"/></linearGradient><linearGradient id="linear-gradient-4" x1="184.74" y1="339.81" x2="381.38" y2="229.86" gradientUnits="userSpaceOnUse"><stop offset="0" stop-color="blue"/><stop offset=".5" stop-color="#fff" stop-opacity="0"/><stop offset="1" stop-color="#ff0"/></linearGradient></defs><g id="Layer_2"><ellipse cx="284.21" cy="284.54" rx="239.13" ry="238.8" fill="none"/><polygon points="164.24 77.27 164.24 215.06 283.73 146.17 164.24 77.27" fill="#ff007f"/><polygon points="403.84 216.18 403.84 353.97 523.34 285.08 403.84 216.18" fill="#7fff00"/><polygon points="164.84 353.45 164.84 491.24 284.33 422.34 164.84 353.45" fill="#007fff"/><polygon points="404.68 491.96 285.19 423.07 404.68 354.18 404.68 491.96" fill="#00ff7f"/><polygon points="164.57 353.2 45.08 284.3 164.57 215.41 164.57 353.2" fill="#7f00ff"/><polygon points="403.47 214.92 283.98 146.03 403.47 77.13 403.47 214.92" fill="#ff7f00"/><polygon points="284.11 45.08 215.12 164.4 353.1 164.4 284.11 45.08" fill="red"/><polygon points="422.06 285.01 353.07 404.34 491.05 404.34 422.06 285.01" fill="lime"/><polygon points="146.35 284.55 77.36 403.88 215.34 403.88 146.35 284.55" fill="blue"/><polygon points="284.44 523.34 215.45 404.01 353.43 404.01 284.44 523.34" fill="aqua"/><polygon points="146.14 284.2 77.15 164.87 215.13 164.87 146.14 284.2" fill="#f0f"/><polygon points="422.27 283.73 353.28 164.4 491.26 164.4 422.27 283.73" fill="#ff0"/><polygon points="353.29 164.4 215.33 164.4 146.35 284.14 215.33 403.88 353.29 403.88 422.27 284.14 353.29 164.4" fill="url(#linear-gradient)"/><polygon points="353.29 164.4 215.33 164.4 284.21 284.54 215.33 403.88 353.29 403.88 284.31 284.14 353.29 164.4" fill="url(#linear-gradient-2)"/><polygon points="284.21 284.54 215.33 164.4 146.35 284.14 284.21 284.54 353.29 403.88 422.27 284.14 284.21 284.54" fill="url(#linear-gradient-3)"/><polygon points="353.29 164.4 283.99 284.62 146.35 284.14 215.33 403.88 284.31 284.14 422.27 284.14 353.29 164.4" fill="url(#linear-gradient-4)"/></g><g id="Layer_6"><path d="M200.43,179.62l-.91-2.19-.85.49-.35-.61.94-.55-.67-1.62-.89.52-.35-.61.99-.57-.88-2.14.6-.35.89,2.13,1.08-.62-.88-2.14.61-.35.89,2.13.85-.49.35.61-.95.55.68,1.61.89-.52.35.61-.99.57.91,2.19-.62.36-.91-2.19-1.08.62.91,2.19-.62.36ZM200.97,175.78l-.67-1.62-1.08.62.67,1.62,1.08-.62Z"/><path d="M201.38,169.74l3.77-2.18.44.76-2.87,1.66,1.34,2.33,2.65-1.53.43.75-2.65,1.53,1.83,3.17-.9.52-4.04-7Z"/><path d="M206.44,166.82l3.77-2.18.44.76-2.87,1.66,1.34,2.33,2.65-1.53.43.75-2.65,1.53,1.83,3.17-.9.52-4.04-7Z"/><path d="M217.72,165.04c1.33,2.29,1.2,4.05-.29,4.92-1.32.76-2.93.04-4.24-2.18-1.31-2.26-1.05-4.08.32-4.87,1.42-.82,2.96-.02,4.21,2.13ZM214.11,167.26c1.01,1.76,2.13,2.44,2.96,1.96.94-.54.75-1.89-.24-3.61-.96-1.66-2.02-2.51-2.96-1.96-.8.46-.82,1.77.24,3.61Z"/><path d="M223.05,161.97c1.33,2.29,1.21,4.05-.29,4.92-1.32.76-2.93.04-4.24-2.18-1.31-2.26-1.05-4.07.32-4.87,1.42-.82,2.96-.02,4.21,2.13ZM219.44,164.19c1.01,1.76,2.13,2.44,2.96,1.96.93-.54.75-1.89-.24-3.61-.96-1.66-2.02-2.51-2.96-1.96-.8.46-.82,1.77.24,3.61Z"/><path d="M226.37,155.64l.35.6.61,7.85-.95.55-.52-7.66v-.02s-3.31,1.91-3.31,1.91l-.44-.76,4.26-2.46Z"/><path d="M227.49,154.66l3.77-2.18.44.76-2.87,1.66,1.34,2.33,2.65-1.53.43.75-2.65,1.53,1.83,3.17-.9.52-4.04-7Z"/><path d="M337.38,417.03l-.9-2.19-.85.49-.35-.61.95-.54-.67-1.62-.89.52-.35-.61.99-.57-.88-2.14.6-.35.89,2.13,1.08-.62-.88-2.14.61-.35.89,2.13.85-.49.35.61-.95.55.68,1.61.89-.52.35.61-.99.57.91,2.19-.62.36-.91-2.19-1.08.62.91,2.19-.62.36ZM337.92,413.19l-.67-1.62-1.08.62.67,1.62,1.08-.62Z"/><path d="M344.54,408.3c1.33,2.29,1.21,4.05-.29,4.92-1.32.76-2.92.04-4.24-2.18-1.31-2.26-1.05-4.07.32-4.87,1.42-.82,2.96-.02,4.21,2.13ZM340.94,410.52c1.01,1.76,2.13,2.44,2.96,1.96.93-.54.75-1.89-.24-3.61-.96-1.66-2.02-2.51-2.96-1.96-.8.46-.82,1.77.24,3.61Z"/><path d="M349.88,405.22c1.33,2.29,1.21,4.05-.29,4.92-1.32.76-2.93.04-4.24-2.18-1.31-2.26-1.05-4.07.32-4.87,1.42-.82,2.96-.02,4.21,2.13ZM346.27,407.44c1.01,1.76,2.13,2.44,2.96,1.96.93-.54.75-1.89-.24-3.61-.96-1.66-2.02-2.51-2.96-1.96-.8.46-.82,1.77.24,3.61Z"/><path d="M348.99,401l3.77-2.18.44.76-2.87,1.65,1.34,2.33,2.65-1.53.43.75-2.65,1.53,1.83,3.17-.9.52-4.04-7Z"/><path d="M354.05,398.08l3.77-2.18.44.76-2.87,1.65,1.34,2.33,2.65-1.53.43.75-2.65,1.53,1.83,3.17-.9.52-4.04-7Z"/><path d="M363.32,393.06l.35.6.61,7.85-.94.55-.52-7.66v-.02s-3.31,1.91-3.31,1.91l-.44-.76,4.26-2.46Z"/><path d="M364.44,392.08l3.77-2.18.44.76-2.87,1.65,1.34,2.33,2.65-1.53.43.75-2.65,1.53,1.83,3.17-.9.52-4.04-7Z"/><path d="M334.55,158.54l1.45-1.88-.85-.49.35-.61.95.55,1.07-1.39-.89-.52.35-.61.99.57,1.42-1.83.6.35-1.41,1.83,1.08.62,1.42-1.83.61.35-1.41,1.83.85.49-.35.61-.95-.55-1.06,1.4.89.52-.35.61-.99-.57-1.44,1.88-.62-.36,1.45-1.88-1.08-.62-1.45,1.88-.62-.36ZM338.14,157.08l1.07-1.39-1.08-.62-1.07,1.39,1.08.62Z"/><path d="M343.58,154.42l3.77,2.18-.44.76-2.87-1.65-1.34,2.33,2.65,1.53-.43.75-2.65-1.53-1.83,3.17-.9-.52,4.04-7Z"/><path d="M348.64,157.34l3.77,2.18-.44.76-2.87-1.65-1.34,2.33,2.65,1.53-.43.75-2.65-1.53-1.83,3.17-.9-.52,4.04-7Z"/><path d="M357.62,162.86l-.35.6-6.49,4.45-.95-.55,6.38-4.28v-.02s-3.29-1.91-3.29-1.91l.44-.76,4.26,2.46Z"/><path d="M359.03,163.34l3.77,2.18-.44.76-2.87-1.65-1.34,2.33,2.65,1.53-.43.75-2.65-1.53-1.83,3.17-.9-.52,4.04-7Z"/><path d="M366.21,172.22c-1.33,2.3-2.91,3.07-4.4,2.21-1.32-.76-1.5-2.51-.23-4.76,1.31-2.26,3-2.95,4.37-2.16,1.42.82,1.5,2.56.26,4.71ZM362.48,170.21c-1.01,1.76-1.05,3.06-.22,3.54.93.54,2.01-.29,3.01-2.02.96-1.66,1.16-3,.22-3.54-.8-.46-1.95.18-3.01,2.02Z"/><path d="M371.54,175.3c-1.33,2.3-2.91,3.07-4.4,2.21-1.32-.76-1.5-2.51-.23-4.76,1.31-2.26,3-2.95,4.37-2.16,1.42.82,1.5,2.56.26,4.71ZM367.81,173.29c-1.01,1.76-1.05,3.06-.22,3.54.93.54,2.01-.29,3.01-2.02.96-1.66,1.16-3,.22-3.54-.8-.46-1.94.18-3.01,2.02Z"/><path d="M196.97,396.61l1.45-1.88-.85-.49.35-.61.95.55,1.07-1.39-.89-.52.35-.61.99.57,1.41-1.83.6.35-1.4,1.83,1.08.62,1.42-1.83.61.35-1.4,1.83.85.49-.35.61-.95-.55-1.06,1.4.89.52-.35.61-.99-.57-1.45,1.88-.62-.36,1.45-1.88-1.08-.62-1.45,1.88-.62-.36ZM200.57,395.15l1.07-1.39-1.08-.62-1.07,1.39,1.08.62Z" fill="#fff"/><path d="M208.12,398.44c-1.33,2.3-2.91,3.07-4.4,2.21-1.32-.76-1.5-2.51-.23-4.76,1.31-2.26,3-2.95,4.37-2.16,1.42.82,1.5,2.56.26,4.71ZM204.39,396.43c-1.01,1.75-1.05,3.06-.22,3.54.93.54,2.01-.29,3.01-2.02.96-1.66,1.16-3,.22-3.54-.8-.46-1.94.18-3.01,2.02Z" fill="#fff"/><path d="M213.45,401.52c-1.33,2.3-2.91,3.07-4.4,2.21-1.32-.76-1.5-2.51-.23-4.76,1.31-2.26,3-2.95,4.37-2.16,1.42.82,1.5,2.56.26,4.71ZM209.72,399.51c-1.01,1.75-1.05,3.06-.22,3.54.93.54,2.01-.29,3.01-2.02.96-1.66,1.16-3,.22-3.54-.8-.46-1.95.18-3.01,2.02Z" fill="#fff"/><path d="M220.58,401.24l-.35.6-6.49,4.45-.95-.54,6.38-4.28v-.02s-3.29-1.91-3.29-1.91l.44-.76,4.26,2.46Z" fill="#fff"/><path d="M222,401.72l3.77,2.18-.44.76-2.87-1.66-1.34,2.33,2.65,1.53-.43.75-2.65-1.53-1.83,3.17-.9-.52,4.04-7Z" fill="#fff"/><path d="M227.06,404.64l3.77,2.18-.44.76-2.87-1.66-1.34,2.33,2.65,1.53-.43.75-2.65-1.53-1.83,3.17-.9-.52,4.04-7Z" fill="#fff"/><path d="M232.12,407.56l3.77,2.18-.44.76-2.87-1.66-1.34,2.33,2.65,1.53-.43.75-2.65-1.53-1.83,3.17-.9-.52,4.04-7Z" fill="#fff"/><path d="M416.48,264.67l2.35.31v-.98h.71v1.09l1.74.23v-1.03h.71v1.14l2.29.31v.7l-2.29-.3v1.25l2.29.31v.71l-2.29-.3v.98h-.71v-1.09l-1.74-.22v1.03h-.71v-1.14l-2.35-.31v-.72l2.35.31v-1.25l-2.35-.31v-.72ZM419.54,267.06l1.74.23v-1.25l-1.74-.23v1.25Z"/><path d="M424.27,275.12h-.7l-7.1-3.39v-1.09l6.9,3.38h.02v-3.81h.88v4.92Z"/><path d="M424.56,276.59v4.35h-.88v-3.31h-2.69v3.06h-.86v-3.06h-3.66v-1.04h8.08Z"/><path d="M424.56,282.43v4.35h-.88v-3.31h-2.69v3.06h-.86v-3.06h-3.66v-1.04h8.08Z"/><path d="M424.56,288.28v4.35h-.88v-3.31h-2.69v3.06h-.86v-3.06h-3.66v-1.04h8.08Z"/><path d="M420.46,298.93c-2.65,0-4.11-.98-4.11-2.71,0-1.52,1.43-2.55,4.01-2.58,2.61,0,4.05,1.13,4.05,2.71s-1.46,2.58-3.95,2.58ZM420.34,294.7c-2.03,0-3.18.62-3.18,1.58,0,1.08,1.26,1.59,3.25,1.59s3.18-.49,3.18-1.58c0-.92-1.13-1.59-3.25-1.59Z"/><path d="M420.46,305.09c-2.65,0-4.11-.98-4.11-2.71,0-1.52,1.43-2.55,4.01-2.58,2.61,0,4.05,1.13,4.05,2.71s-1.46,2.58-3.95,2.58ZM420.34,300.85c-2.03,0-3.18.62-3.18,1.58,0,1.08,1.26,1.59,3.25,1.59s3.18-.49,3.18-1.58c0-.92-1.13-1.59-3.25-1.59Z"/><path d="M151.82,304.4l-2.35-.31v.98h-.71v-1.09l-1.74-.23v1.03h-.71v-1.14l-2.29-.31v-.7l2.29.3v-1.25l-2.29-.31v-.71l2.29.3v-.98h.71v1.09l1.74.22v-1.03h.71v1.14l2.35.31v.72l-2.35-.31v1.25l2.35.31v.72ZM148.76,302.02l-1.74-.23v1.25l1.74.23v-1.25Z" fill="#fff"/><path d="M144.02,293.95h.7l7.1,3.39v1.09l-6.9-3.38h-.02v3.81h-.88v-4.92Z" fill="#fff"/><path d="M143.74,292.49v-4.35h.88v3.31h2.69v-3.06h.86v3.06h3.66v1.04h-8.08Z" fill="#fff"/><path d="M147.84,281.83c2.65,0,4.11.98,4.11,2.71,0,1.52-1.43,2.55-4.01,2.58-2.61,0-4.05-1.13-4.05-2.71s1.46-2.58,3.95-2.58ZM147.96,286.07c2.03,0,3.18-.62,3.18-1.58,0-1.08-1.26-1.59-3.25-1.59s-3.18.49-3.18,1.58c0,.92,1.13,1.59,3.25,1.59Z" fill="#fff"/><path d="M147.84,275.68c2.65,0,4.11.98,4.11,2.71,0,1.52-1.43,2.55-4.01,2.58-2.61,0-4.05-1.13-4.05-2.71s1.46-2.58,3.95-2.58ZM147.96,279.91c2.03,0,3.18-.62,3.18-1.58,0-1.08-1.26-1.59-3.25-1.59s-3.18.49-3.18,1.58c0,.92,1.13,1.59,3.25,1.59Z" fill="#fff"/><path d="M143.74,274.33v-4.35h.88v3.31h2.69v-3.06h.86v3.06h3.66v1.04h-8.08Z" fill="#fff"/><path d="M143.74,268.49v-4.35h.88v3.31h2.69v-3.06h.86v3.06h3.66v1.04h-8.08Z" fill="#fff"/><path d="M274.29,150.36h-1.85l-.31,3.05h-1.23l.31-3.05h-2.12l-.31,3.05h-1.23l.31-3.05h-1.77v-1.08h1.88l.3-2.91h-1.75v-1.08h1.86l.28-2.74h1.21l-.27,2.74h2.12l.28-2.74h1.23l-.29,2.74h1.78v1.08h-1.89l-.29,2.91h1.74v1.08ZM271.33,149.28l.29-2.91h-2.12l-.29,2.91h2.12Z"/><path d="M282.91,143.82h-4.61v3.52h4.37v1.24h-4.37v4.83h-1.51v-10.85h6.12v1.26Z"/><path d="M293.05,147.99c0,.83-.08,1.59-.25,2.27s-.42,1.27-.76,1.76c-.34.49-.76.87-1.26,1.14s-1.09.4-1.76.4c-.58,0-1.11-.11-1.58-.33s-.88-.55-1.22-1.01c-.34-.45-.6-1.03-.78-1.73-.18-.7-.27-1.54-.27-2.5,0-.83.08-1.59.25-2.28.17-.69.42-1.27.76-1.76.33-.49.75-.87,1.26-1.14.5-.27,1.09-.4,1.76-.4.58,0,1.11.11,1.59.33s.88.56,1.22,1.01c.34.46.6,1.04.78,1.74.18.7.27,1.54.27,2.5ZM286.63,147.94c0,.17,0,.34,0,.52,0,.17.01.34.03.5l4.59-3.4c-.08-.28-.19-.54-.31-.77-.13-.23-.28-.43-.46-.6s-.38-.3-.61-.39c-.23-.09-.48-.14-.76-.14-.38,0-.72.09-1.03.27-.31.18-.57.46-.79.82-.21.36-.38.81-.5,1.34-.12.53-.17,1.15-.17,1.85ZM291.59,148.04c0-.19,0-.37-.02-.56s-.03-.37-.05-.54l-4.59,3.41c.08.29.19.55.32.8.13.24.28.45.46.63.18.17.38.31.61.41s.49.14.79.14c.38,0,.72-.09,1.02-.27.31-.18.57-.45.78-.81.22-.36.38-.81.5-1.34.12-.53.17-1.15.17-1.86Z"/><path d="M302.4,147.99c0,.83-.08,1.59-.25,2.27s-.42,1.27-.76,1.76c-.34.49-.76.87-1.26,1.14s-1.09.4-1.76.4c-.58,0-1.11-.11-1.58-.33s-.88-.55-1.22-1.01c-.34-.45-.6-1.03-.78-1.73-.18-.7-.27-1.54-.27-2.5,0-.83.08-1.59.25-2.28.17-.69.42-1.27.76-1.76.33-.49.75-.87,1.26-1.14.5-.27,1.09-.4,1.76-.4.58,0,1.11.11,1.59.33s.88.56,1.22,1.01c.34.46.6,1.04.78,1.74.18.7.27,1.54.27,2.5ZM295.98,147.94c0,.17,0,.34,0,.52,0,.17.01.34.03.5l4.59-3.4c-.08-.28-.19-.54-.31-.77-.13-.23-.28-.43-.46-.6s-.38-.3-.61-.39c-.23-.09-.48-.14-.76-.14-.38,0-.72.09-1.03.27-.31.18-.57.46-.79.82-.21.36-.38.81-.5,1.34-.12.53-.17,1.15-.17,1.85ZM300.94,148.04c0-.19,0-.37-.02-.56s-.03-.37-.05-.54l-4.59,3.41c.08.29.19.55.32.8.13.24.28.45.46.63.18.17.38.31.61.41s.49.14.79.14c.38,0,.72-.09,1.02-.27.31-.18.57-.45.78-.81.22-.36.38-.81.5-1.34.12-.53.17-1.15.17-1.86Z"/><path d="M395.69,360.44l-.92,1.6,2.48,1.79-.61,1.06-2.48-1.79-1.06,1.83,2.49,1.79-.61,1.06-2.49-1.79-.88,1.53-.93-.54.94-1.62-2.37-1.71-.88,1.52-.93-.54.93-1.61-2.23-1.61.61-1.05,2.24,1.61,1.06-1.84-2.23-1.61.61-1.06,2.23,1.62.89-1.55.93.54-.95,1.64,2.37,1.7.87-1.51.93.54ZM393.27,362.47l-2.37-1.71-1.06,1.84,2.37,1.71,1.06-1.84Z"/><path d="M398.34,351.1c.72.42,1.33.86,1.84,1.35.51.49.89,1,1.15,1.53.26.54.37,1.09.36,1.66-.02.57-.2,1.14-.53,1.73-.29.5-.65.91-1.08,1.21-.43.3-.92.49-1.48.55-.56.07-1.19,0-1.89-.19-.7-.19-1.47-.53-2.3-1.01-.72-.42-1.33-.87-1.84-1.36-.51-.49-.89-1-1.15-1.54s-.38-1.09-.36-1.66c.02-.57.2-1.14.53-1.72.29-.5.65-.91,1.08-1.21.43-.3.92-.49,1.49-.55s1.2,0,1.9.19,1.47.53,2.3,1.01ZM395.08,356.64c.15.09.3.17.45.25.15.08.3.16.45.22l-.64-5.67c-.29-.07-.56-.11-.83-.11s-.51.03-.75.09c-.23.07-.45.18-.64.33s-.36.35-.5.59c-.19.33-.28.67-.28,1.03,0,.36.11.72.32,1.09.21.37.51.74.92,1.1.4.37.91.73,1.52,1.08ZM397.65,352.39c-.16-.09-.33-.18-.5-.26-.17-.08-.33-.16-.49-.23l.66,5.68c.29.07.57.11.85.12.27.01.53-.02.77-.09.24-.07.46-.18.66-.33.2-.15.37-.35.52-.61.19-.33.28-.67.28-1.03,0-.36-.11-.72-.31-1.09-.2-.37-.51-.73-.91-1.1-.41-.37-.91-.73-1.52-1.08Z"/><path d="M399.01,341.62l-2.3,3.99,3.05,1.76,2.18-3.78,1.07.62-2.18,3.78,4.18,2.42-.76,1.31-9.4-5.42,3.06-5.3,1.09.63Z"/><path d="M407.69,334.92c.72.42,1.33.87,1.84,1.35s.89,1,1.15,1.53c.26.54.37,1.09.36,1.66-.02.57-.2,1.14-.53,1.73-.29.5-.65.91-1.08,1.21-.43.3-.92.49-1.48.55-.56.07-1.19,0-1.89-.19-.7-.19-1.47-.53-2.3-1.01-.72-.41-1.33-.87-1.84-1.36s-.89-1-1.15-1.54c-.26-.53-.38-1.09-.36-1.66.02-.57.2-1.15.53-1.73.29-.5.65-.91,1.08-1.21.43-.3.92-.49,1.49-.55.56-.06,1.2,0,1.9.19.7.19,1.47.53,2.3,1.01ZM404.43,340.45c.15.09.3.17.45.25.15.08.3.16.45.22l-.64-5.67c-.29-.07-.56-.11-.83-.11-.26,0-.51.03-.75.09-.23.07-.45.18-.64.33s-.36.35-.5.59c-.19.33-.28.67-.28,1.02,0,.36.11.72.32,1.09.21.37.51.74.92,1.1.4.37.91.73,1.52,1.08ZM407,336.21c-.16-.09-.33-.18-.5-.26-.17-.08-.33-.16-.49-.23l.66,5.68c.29.07.57.11.85.12.27.01.53-.02.77-.09s.46-.18.66-.33c.2-.15.37-.35.52-.61.19-.33.28-.67.28-1.02,0-.36-.11-.72-.31-1.09-.2-.37-.51-.73-.91-1.1-.41-.37-.91-.73-1.52-1.08Z"/><path d="M171.52,231.82l-.93,1.6,2.49,1.79-.61,1.06-2.49-1.79-1.06,1.83,2.48,1.79-.61,1.06-2.48-1.79-.88,1.53-.93-.54.94-1.62-2.37-1.71-.88,1.52-.93-.54.93-1.61-2.23-1.61.61-1.05,2.24,1.61,1.06-1.84-2.23-1.61.61-1.06,2.23,1.62.89-1.54.93.54-.95,1.64,2.37,1.71.87-1.51.93.54ZM169.1,233.84l-2.37-1.71-1.06,1.84,2.37,1.7,1.06-1.84Z"/><path d="M170.16,221.08l-2.3,3.99,3.05,1.76,2.18-3.78,1.07.62-2.18,3.78,4.18,2.42-.76,1.31-9.4-5.42,3.06-5.3,1.09.63Z"/><path d="M178.84,214.38c.72.42,1.33.87,1.84,1.35.51.49.89,1,1.15,1.53.26.54.37,1.09.36,1.66-.02.57-.2,1.14-.53,1.73-.29.5-.65.91-1.08,1.21-.43.3-.92.49-1.48.55-.56.07-1.19,0-1.89-.19-.7-.19-1.47-.53-2.3-1.01-.72-.42-1.33-.87-1.84-1.36-.51-.49-.89-1-1.15-1.54-.26-.54-.38-1.09-.36-1.66s.2-1.14.53-1.72c.29-.5.65-.91,1.08-1.21.43-.3.92-.49,1.49-.55.56-.06,1.2,0,1.9.19s1.47.53,2.3,1.01ZM175.59,219.92c.15.09.3.17.45.25.15.08.3.16.45.22l-.65-5.67c-.29-.07-.56-.11-.83-.11-.26,0-.51.03-.75.09-.23.07-.45.18-.64.33-.2.15-.36.35-.5.59-.19.33-.28.67-.28,1.02,0,.36.11.72.32,1.09s.51.74.92,1.1c.4.37.91.73,1.52,1.08ZM178.16,215.67c-.16-.09-.33-.18-.49-.26-.17-.08-.33-.16-.49-.23l.66,5.68c.29.07.57.11.85.12.27.01.53-.02.77-.09.24-.07.46-.18.66-.33.2-.15.37-.35.52-.61.19-.33.28-.67.28-1.02s-.11-.72-.31-1.09c-.2-.37-.51-.73-.91-1.1-.4-.37-.91-.73-1.52-1.08Z"/><path d="M179.51,204.89l-2.3,3.99,3.05,1.76,2.18-3.78,1.07.62-2.18,3.78,4.18,2.42-.76,1.31-9.4-5.42,3.06-5.3,1.09.63Z"/><path d="M391.69,210.31l-.93-1.6-2.79,1.26-.61-1.06,2.79-1.26-1.06-1.83-2.79,1.26-.61-1.06,2.79-1.26-.88-1.53.93-.54.94,1.62,2.67-1.19-.88-1.52.93-.54.93,1.61,2.51-1.13.61,1.05-2.51,1.13,1.06,1.84,2.51-1.12.62,1.06-2.52,1.12.89,1.55-.93.54-.95-1.64-2.66,1.2.87,1.51-.93.54ZM391.14,207.21l2.66-1.2-1.06-1.84-2.66,1.2,1.06,1.84Z"/><path d="M401.66,214.5l-2.3-3.99-3.05,1.76,2.18,3.78-1.07.62-2.18-3.78-4.18,2.42-.76-1.31,9.4-5.42,3.06,5.3-1.09.63Z"/><path d="M406.34,222.6l-2.3-3.99-3.05,1.76,2.18,3.78-1.07.62-2.18-3.78-4.18,2.42-.76-1.31,9.4-5.42,3.06,5.3-1.09.63Z"/><path d="M407.8,233.47c-.72.42-1.42.72-2.09.92-.67.2-1.31.27-1.9.22-.59-.05-1.13-.22-1.61-.52-.48-.3-.89-.74-1.23-1.33-.29-.5-.46-1.02-.51-1.54s.04-1.04.26-1.56c.22-.52.59-1.03,1.11-1.54.52-.51,1.19-1,2.03-1.49.72-.42,1.42-.72,2.1-.92s1.31-.27,1.91-.23,1.13.22,1.61.52c.48.3.89.74,1.23,1.32.29.5.46,1.02.51,1.54.05.52-.04,1.04-.27,1.56s-.6,1.04-1.12,1.54c-.52.51-1.19,1.01-2.03,1.49ZM407.03,232.22c.16-.09.32-.19.48-.3.15-.1.3-.21.45-.31l-5.25-2.27c-.21.22-.38.44-.53.67-.15.23-.25.47-.31.71-.06.24-.08.49-.04.74.03.25.12.5.27.75.19.33.44.58.75.75s.68.27,1.1.27c.42,0,.89-.07,1.41-.24.52-.17,1.09-.42,1.69-.78ZM404.63,227.88c-.15.09-.3.17-.44.26-.15.09-.29.18-.42.27l5.24,2.28c.2-.21.37-.43.51-.66.14-.23.24-.46.29-.7.06-.24.07-.48.04-.72-.03-.24-.12-.49-.26-.73-.19-.33-.44-.58-.75-.75s-.68-.26-1.1-.27-.89.08-1.41.24c-.52.17-1.08.43-1.69.78Z"/><path d="M274.29,420.02h-1.85l-.31,3.05h-1.23l.31-3.05h-2.12l-.31,3.05h-1.23l.31-3.05h-1.77v-1.08h1.88l.3-2.91h-1.75v-1.08h1.86l.28-2.74h1.21l-.27,2.74h2.12l.28-2.74h1.23l-.29,2.74h1.78v1.08h-1.89l-.29,2.91h1.74v1.08ZM271.33,418.94l.29-2.91h-2.12l-.29,2.91h2.12Z"/><path d="M283.71,417.65c0,.83-.08,1.59-.25,2.27s-.42,1.27-.76,1.76c-.34.49-.76.87-1.26,1.14-.5.27-1.09.4-1.76.4-.58,0-1.11-.11-1.59-.33s-.88-.55-1.22-1.01c-.34-.45-.6-1.03-.78-1.73s-.27-1.54-.27-2.5c0-.83.08-1.59.25-2.28.17-.69.42-1.27.76-1.76.33-.49.75-.87,1.26-1.14s1.09-.4,1.76-.4c.58,0,1.11.11,1.59.33s.88.56,1.22,1.01c.34.46.6,1.04.78,1.74s.27,1.54.27,2.5ZM277.28,417.6c0,.17,0,.34,0,.52,0,.17.01.34.03.5l4.59-3.4c-.08-.28-.19-.54-.32-.77s-.28-.43-.46-.6-.38-.3-.61-.39c-.23-.09-.48-.14-.76-.14-.38,0-.72.09-1.02.27-.31.18-.57.46-.78.82s-.38.81-.5,1.34-.17,1.15-.17,1.85ZM282.25,417.7c0-.19,0-.37-.02-.56-.01-.19-.03-.37-.05-.54l-4.59,3.41c.08.29.19.55.32.8.13.24.28.45.46.63.18.17.38.31.61.41.23.1.49.14.78.14.38,0,.72-.09,1.02-.27.31-.18.57-.45.78-.81s.38-.81.5-1.34.17-1.15.17-1.86Z"/><path d="M292.26,413.48h-4.61v3.52h4.37v1.24h-4.37v4.83h-1.51v-10.85h6.12v1.26Z"/><path d="M301.6,413.48h-4.61v3.52h4.37v1.24h-4.37v4.83h-1.51v-10.85h6.12v1.26Z"/><path d="M159.76,342.91l-.92-1.6-2.79,1.26-.61-1.06,2.79-1.26-1.06-1.83-2.79,1.26-.61-1.06,2.79-1.26-.88-1.53.93-.54.94,1.62,2.67-1.19-.88-1.52.93-.54.93,1.61,2.51-1.12.61,1.05-2.51,1.13,1.06,1.84,2.51-1.12.61,1.06-2.52,1.12.89,1.55-.93.54-.95-1.64-2.66,1.2.87,1.51-.93.54ZM159.21,339.8l2.66-1.2-1.06-1.84-2.66,1.2,1.06,1.84Z" fill="#fff"/><path d="M166.52,349.87c-.72.42-1.42.72-2.09.92-.67.2-1.31.27-1.9.22-.59-.05-1.13-.22-1.61-.52s-.89-.74-1.23-1.33c-.29-.5-.46-1.02-.51-1.54-.05-.52.04-1.04.26-1.56.22-.52.6-1.03,1.11-1.54.52-.51,1.19-1.01,2.03-1.49.72-.42,1.42-.72,2.1-.92.68-.2,1.31-.27,1.91-.23.59.04,1.13.22,1.61.52.48.3.89.74,1.23,1.32.29.5.46,1.02.51,1.54.05.52-.04,1.04-.27,1.56-.23.52-.6,1.04-1.12,1.54-.52.51-1.19,1.01-2.03,1.49ZM165.75,348.63c.16-.09.32-.19.47-.3s.3-.21.45-.31l-5.25-2.27c-.21.22-.39.44-.53.67-.15.23-.25.47-.31.71-.06.24-.08.49-.04.74.03.25.12.5.27.75.19.33.44.58.75.75.31.17.68.27,1.1.27.42,0,.89-.07,1.41-.24.52-.17,1.09-.42,1.69-.78ZM163.35,344.28c-.15.09-.3.17-.44.26-.15.09-.29.18-.42.27l5.23,2.28c.2-.21.37-.43.51-.66.14-.23.23-.46.29-.7.06-.24.07-.48.04-.72-.03-.24-.12-.49-.26-.73-.19-.33-.44-.58-.75-.75-.31-.18-.68-.26-1.1-.27-.42,0-.89.08-1.41.24-.52.17-1.08.43-1.69.78Z" fill="#fff"/><path d="M171.2,357.96c-.72.42-1.42.72-2.09.92-.68.2-1.31.27-1.9.23-.59-.05-1.13-.22-1.61-.52-.48-.3-.89-.74-1.23-1.33-.29-.5-.46-1.02-.51-1.54-.05-.52.04-1.04.26-1.56.22-.52.59-1.03,1.11-1.54.52-.51,1.19-1.01,2.03-1.49.72-.42,1.42-.72,2.1-.92.68-.2,1.31-.27,1.91-.23.59.04,1.13.22,1.61.52s.89.74,1.23,1.32c.29.5.46,1.02.51,1.54.05.52-.04,1.04-.27,1.56-.23.52-.6,1.04-1.12,1.54-.52.51-1.19,1-2.03,1.49ZM170.42,356.72c.16-.09.32-.19.48-.3.15-.11.3-.21.45-.31l-5.25-2.27c-.21.22-.38.44-.53.67-.15.23-.25.47-.31.71s-.08.49-.05.74c.03.25.12.5.27.75.19.33.44.58.75.75.31.17.68.26,1.1.27.42,0,.89-.07,1.41-.24.52-.17,1.09-.42,1.69-.78ZM168.03,352.38c-.15.09-.3.17-.44.26-.15.09-.29.18-.42.27l5.24,2.28c.2-.21.37-.43.51-.66.14-.23.23-.46.29-.7s.07-.48.04-.72c-.03-.24-.12-.49-.26-.73-.19-.33-.44-.58-.75-.75-.31-.18-.68-.26-1.1-.27-.42,0-.89.08-1.41.24-.52.17-1.08.43-1.69.78Z" fill="#fff"/><path d="M179.08,363.29l-2.3-3.99-3.05,1.76,2.18,3.78-1.07.62-2.18-3.78-4.18,2.42-.76-1.31,9.4-5.42,3.06,5.3-1.09.63Z" fill="#fff"/></g><g id="Layer_4"><ellipse cx="284.21" cy="285.87" rx="245.11" ry="243.45" fill="none"/><path d="M266.78,27.65c1.01-.26,2.46-.44,3.85-.51,2.15-.1,3.56.22,4.57,1.04.82.65,1.31,1.69,1.37,2.88.1,2.04-1.13,3.46-2.75,4.1v.07c1.23.35,2,1.42,2.45,3.01.61,2.14,1.06,3.61,1.41,4.19l-2.08.1c-.28-.42-.69-1.74-1.22-3.65-.57-2.11-1.44-2.88-3.27-2.86l-1.9.09.33,6.71-2.01.1-.74-15.28ZM269.13,34.61l2.06-.1c2.15-.1,3.46-1.34,3.37-3.11-.1-2-1.6-2.8-3.73-2.72-.97.05-1.66.17-1.98.28l.27,5.65Z"/><path d="M280.85,37.27c.09,2.74,1.87,3.83,3.9,3.8,1.46-.02,2.33-.29,3.09-.62l.37,1.44c-.71.33-1.93.72-3.72.75-3.45.05-5.55-2.17-5.6-5.52-.05-3.36,1.9-6.03,5.16-6.08,3.66-.06,4.68,3.12,4.71,5.17,0,.41-.03.74-.05.94l-7.87.12ZM286.8,35.73c0-1.29-.58-3.28-2.88-3.24-2.06.03-2.93,1.93-3.07,3.34l5.95-.09Z"/><path d="M301.66,26.61l-.63,13.44c-.05.99-.08,2.12-.04,2.88l-1.83-.09v-1.93s-.05,0-.05,0c-.68,1.21-2.09,2.09-3.92,2-2.71-.13-4.68-2.5-4.52-5.88.15-3.7,2.57-5.87,5.3-5.74,1.71.08,2.83.94,3.3,1.86h.05s.31-6.64.31-6.64l2.04.1ZM299.17,36.24c.01-.25,0-.6-.05-.85-.24-1.3-1.3-2.41-2.83-2.48-2.11-.1-3.44,1.68-3.56,4.14-.11,2.25.92,4.17,3.11,4.27,1.37.06,2.66-.77,3.1-2.27.08-.27.12-.55.13-.87l.09-1.93Z"/><ellipse cx="284.21" cy="282.55" rx="245.11" ry="243.45" fill="none"/><path d="M487.34,146.27l5.45-3.68,4.65-9.06,1.28,1.89-2.32,4.21c-.64,1.15-1.16,2.06-1.79,3.07l.03.04c1.08-.21,2.22-.33,3.52-.49l4.79-.55,1.28,1.89-10.29.68-5.47,3.7-1.13-1.68Z"/><path d="M496.26,150.34c-2.3,1.47-2.35,3.55-1.29,5.28.76,1.23,1.43,1.84,2.11,2.32l-1.05,1.05c-.65-.44-1.6-1.28-2.53-2.79-1.8-2.92-.95-5.84,1.9-7.6,2.86-1.76,6.15-1.47,7.85,1.29,1.91,3.09-.31,5.59-2.05,6.67-.35.22-.65.35-.84.44l-4.1-6.66ZM500.6,154.63c1.11-.66,2.52-2.18,1.33-4.11-1.07-1.74-3.15-1.52-4.43-.92l3.1,5.03Z"/><path d="M511.31,153.77l1,1.76-14.18,8.09-1-1.76,14.18-8.09Z"/><path d="M514.11,158.76l.96,1.78-14.37,7.77-.96-1.78,14.37-7.77Z"/><path d="M511.81,177.71c-3.69,1.83-6.56.06-7.75-2.35-1.33-2.7-.39-5.76,2.77-7.32,3.34-1.65,6.38-.43,7.74,2.33,1.42,2.87.29,5.83-2.76,7.34ZM507.79,169.84c-2.19,1.08-3.21,3.15-2.34,4.93.86,1.73,3.13,2.22,5.37,1.11,1.69-.84,3.42-2.74,2.36-4.88-1.06-2.14-3.5-2.09-5.39-1.16Z"/><path d="M518.24,178.56l-4.64,3.56c-1.02.78-1.96,1.5-2.94,2.14l.03.06c1.14-.21,2.38-.33,3.63-.46l5.94-.54.66,1.57-4.45,3.76c-1.07.9-2.02,1.65-2.96,2.33l.03.06c1.11-.27,2.31-.45,3.66-.62l5.76-.71.78,1.84-11.65,1.03-.72-1.69,4.23-3.64c.99-.84,1.88-1.57,2.98-2.33l-.02-.04c-1.34.26-2.53.4-3.78.5l-5.57.41-.72-1.69,8.94-7.43.81,1.91Z"/><ellipse cx="284.21" cy="282.55" rx="263.06" ry="261.28" transform="translate(-48.69 59.42) rotate(-11)" fill="none"/><path d="M501.07,428.81c-.26.92-.87,2.66-2.09,4.36-1.37,1.91-2.98,3.12-5.04,3.51-1.82.33-3.99-.21-5.95-1.62-3.74-2.72-4.63-7.27-1.6-11.48,1.05-1.46,2.18-2.37,2.83-2.72l1.04,1.34c-.78.46-1.63,1.12-2.54,2.39-2.2,3.06-1.73,6.43,1.42,8.7,3.19,2.3,6.46,1.73,8.57-1.2.76-1.06,1.14-1.9,1.22-2.41l-3.75-2.7-1.84,2.56-1.31-.94,2.98-4.14,6.05,4.35Z"/><path d="M497.08,422.16c-1.1-.72-2.05-1.32-2.96-1.82l.97-1.48,1.87,1.14.05-.08c-.97-1.24-1.1-2.78-.35-3.91.13-.19.23-.32.37-.44l1.6,1.04c-.15.15-.28.31-.44.54-.78,1.19-.43,2.63.69,3.7.21.19.45.4.74.59l4.97,3.25-1.1,1.67-6.41-4.19Z"/><path d="M503.79,416.28c2.37,1.38,4.23.46,5.28-1.27.75-1.24.98-2.12,1.1-2.93l1.42.45c-.09.78-.41,2.01-1.32,3.53-1.77,2.93-4.76,3.52-7.63,1.79-2.88-1.74-4.12-4.8-2.44-7.57,1.88-3.11,5.11-2.29,6.87-1.23.36.21.61.42.77.55l-4.04,6.7ZM505.62,410.45c-1.09-.69-3.09-1.25-4.27.7-1.06,1.75.09,3.5,1.21,4.36l3.06-5.06Z"/><path d="M509.72,406.19c2.43,1.26,4.25.27,5.22-1.51.69-1.27.89-2.16.97-2.98l1.44.39c-.06.78-.32,2.03-1.16,3.58-1.64,3.01-4.59,3.74-7.54,2.13-2.95-1.6-4.33-4.6-2.78-7.45,1.73-3.19,5-2.52,6.8-1.54.36.2.62.39.8.51l-3.73,6.87ZM511.28,400.28c-1.12-.63-3.14-1.11-4.23.9-.98,1.8.25,3.49,1.41,4.3l2.82-5.19Z"/><path d="M512.09,395.56c-1.04-.5-1.9-.89-2.75-1.23l.78-1.62,1.71.7.02-.04c-.71-.96-1.09-2.57-.29-4.22.67-1.39,2.54-3.14,5.98-1.48l5.99,2.89-.88,1.82-5.78-2.79c-1.62-.78-3.25-.83-4.08.89-.58,1.2-.18,2.54.69,3.35.19.19.48.38.79.53l6.03,2.91-.88,1.82-7.31-3.53Z"/><ellipse cx="284.21" cy="282.55" rx="261.28" ry="263.06" transform="translate(-62.27 483.94) rotate(-75)" fill="none"/><path d="M62.26,390.95c.57.69,1.33,1.85,1.97,3.09.92,1.77,1.21,3.08.96,4.29-.16.99-.75,1.84-1.83,2.41-1.33.69-2.95.42-4.23-.75l-.04.02c.35,1.48.07,3.57-1.97,4.63-1.18.62-2.32.61-3.36.27-1.38-.5-2.59-1.84-3.76-4.08-.64-1.22-1.04-2.21-1.27-2.84l13.52-7.04ZM50.97,399.08c.12.38.36.9.69,1.53.96,1.84,2.51,3.18,4.51,2.14,1.88-.98,1.81-2.99.8-4.93l-.76-1.47-5.24,2.73ZM57.56,395.66l.84,1.61c.98,1.88,2.53,2.47,3.85,1.78,1.61-.84,1.61-2.39.67-4.19-.42-.82-.73-1.25-.94-1.51l-4.42,2.3Z"/><path d="M68.9,401.2l1,1.76-14.21,8.05-1-1.76,14.21-8.05Z"/><path d="M64.99,420.62c-.98.6-1.83,1.15-2.54,1.67l-.94-1.53,1.49-1.05-.02-.04c-1.04.02-2.65-.37-3.69-2.05-.91-1.49-1.19-3.78,2.15-5.82l5.55-3.4,1.06,1.72-5.25,3.22c-1.8,1.11-2.68,2.4-1.72,3.97.71,1.16,2.01,1.47,2.96,1.31.31-.06.67-.19.98-.38l5.82-3.57,1.06,1.72-6.9,4.23Z"/><path d="M69.41,423.39c-2.24,1.58-2.19,3.66-1.05,5.33.82,1.2,1.52,1.78,2.21,2.22l-1,1.1c-.67-.41-1.66-1.21-2.65-2.67-1.93-2.83-1.22-5.79,1.56-7.68,2.78-1.89,6.08-1.74,7.9.94,2.05,3-.05,5.6-1.75,6.75-.34.23-.63.38-.82.47l-4.4-6.46ZM73.95,427.48c1.08-.71,2.42-2.29,1.14-4.17-1.15-1.69-3.22-1.37-4.47-.72l3.33,4.89Z"/><ellipse cx="284.21" cy="282.55" rx="263.04" ry="261.26" fill="none"/><path d="M136.72,493.03l-4.07,3.13-1.71-1.16,13.05-9.88,2,1.35-4.31,15.8-1.77-1.2,1.36-4.97-4.55-3.08ZM141.81,494.58l1.24-4.54c.28-1.03.61-1.92.92-2.79l-.04-.03c-.71.63-1.44,1.27-2.22,1.88l-3.77,2.86,3.87,2.62Z"/><path d="M143.78,502.16l7.71-2.98c.72-.26,1.39-.47,2.13-.72l.02-.04-5.15-3.13.85-1.4,7.25,4.41-.68,1.07-7.6,2.94c-.72.29-1.4.52-2.13.75l-.02.04,5.56,3.38-.84,1.38-7.72-4.7.61-1Z"/><path d="M162.67,510.93c-.55,1.01-1.02,1.91-1.38,2.71l-1.57-.86.77-1.65-.04-.02c-.9.53-2.49,1-4.22.04-1.53-.84-2.9-2.69-1.02-6.12l3.13-5.7,1.77.97-2.96,5.4c-1.02,1.85-1.14,3.41.47,4.3,1.19.65,2.47.28,3.22-.33.24-.21.48-.5.66-.82l3.29-5.99,1.77.97-3.89,7.09Z"/><path d="M167.96,508.43c.58-1.17,1.07-2.19,1.47-3.15l1.58.79-.91,1.99.08.04c1.12-1.11,2.63-1.41,3.85-.81.21.1.34.19.48.32l-.85,1.71c-.17-.13-.34-.25-.59-.37-1.28-.64-2.66-.12-3.59,1.12-.16.23-.35.49-.5.8l-2.65,5.31-1.79-.89,3.41-6.85Z"/><path d="M174.59,514.4c-1.09,2.51.04,4.26,1.88,5.1,1.32.6,2.22.73,3.04.75l-.28,1.46c-.78,0-2.04-.17-3.66-.9-3.12-1.41-4.06-4.31-2.67-7.37s4.28-4.65,7.23-3.31c3.31,1.5,2.87,4.81,2.03,6.67-.17.38-.35.65-.45.83l-7.12-3.23ZM180.59,515.53c.55-1.16.88-3.21-1.2-4.15-1.86-.84-3.46.5-4.19,1.71l5.38,2.44Z"/><ellipse cx="284.21" cy="282.55" rx="245.11" ry="243.45" transform="translate(-44.75 53.64) rotate(-10)" fill="none"/><path d="M52.22,185.44c-2.05-.7-4.51-1.54-6.3-2.28l-.03.06c1.49,1.17,3.04,2.48,4.74,4.01l5.97,5.34-.56,1.41-7.79-.42c-2.3-.13-4.39-.3-6.26-.57l-.02.04c1.78.76,4.15,1.83,6.25,2.83l6.02,2.86-.71,1.77-13.99-6.77.95-2.37,7.95.33c2.01.11,3.79.25,5.43.49l.03-.06c-1.31-.95-2.68-2.09-4.24-3.46l-5.94-5.35.95-2.37,14.75,4.87-.73,1.82-6.47-2.17Z"/><path d="M63.33,177.6l-1.34-.45-.03.06c.52.93.72,2.35.04,3.79-.96,2.04-2.89,2.4-4.34,1.71-2.43-1.15-2.74-3.94-.88-7.82l-.21-.1c-.83-.39-2.44-.87-3.41,1.19-.44.94-.61,2.05-.49,2.97l-1.4-.16c-.15-1.09.07-2.46.67-3.73,1.45-3.08,3.91-2.83,5.92-1.88l3.76,1.78c.87.41,1.74.77,2.49.97l-.79,1.66ZM58.06,175.44c-.99,1.98-1.7,4.41.25,5.33,1.18.56,2.12.04,2.56-.9.62-1.31.18-2.54-.53-3.23-.16-.15-.35-.29-.53-.38l-1.75-.83Z"/><path d="M60.08,159.64c.69.42,1.46.88,2.66,1.52l5.7,3.04c2.25,1.2,3.4,2.38,3.74,3.79.39,1.43-.07,2.96-.73,4.2-.63,1.18-1.6,2.33-2.55,2.83l-1.12-1.17c.75-.43,1.66-1.25,2.31-2.47.97-1.83.73-3.68-1.74-5l-1.1-.58-.02.04c.62,1.04.79,2.48-.02,4-1.3,2.44-4.3,3.08-7.02,1.63-3.33-1.77-4.06-4.95-2.86-7.21.91-1.7,2.3-2.16,3.34-2.16l.02-.04-1.44-.87.83-1.56ZM62.98,163.56c-.3-.16-.58-.28-.87-.33-1.21-.23-2.53.19-3.22,1.49-.91,1.71-.12,3.69,2.16,4.9,1.93,1.03,4.05.91,5.08-1.02.58-1.1.42-2.46-.51-3.45-.25-.26-.57-.49-.88-.65l-1.77-.94Z"/><path d="M67.55,158.58c2.37,1.37,4.24.44,5.28-1.3.74-1.24.97-2.12,1.09-2.94l1.42.45c-.09.78-.4,2.01-1.31,3.53-1.76,2.94-4.74,3.54-7.62,1.82-2.88-1.72-4.14-4.78-2.48-7.56,1.86-3.12,5.1-2.31,6.86-1.26.35.21.61.42.77.54l-4.01,6.71ZM69.35,152.74c-1.09-.68-3.09-1.23-4.26.72-1.05,1.76.11,3.49,1.23,4.35l3.03-5.07Z"/><path d="M70.55,148c-.96-.64-1.76-1.14-2.56-1.59l.99-1.49,1.6.92.03-.04c-.58-1.05-.72-2.69.3-4.22.85-1.28,2.94-2.76,6.12-.65l5.53,3.68-1.12,1.69-5.34-3.55c-1.49-.99-3.11-1.27-4.17.32-.74,1.11-.53,2.5.22,3.41.16.22.42.45.71.64l5.57,3.71-1.12,1.69-6.76-4.5Z"/><path d="M74.19,131.73l2.59,1.88,1.7-2.34,1.25.91-1.7,2.35,4.86,3.53c1.12.81,1.98.95,2.64.04.31-.43.48-.79.58-1.03l1.28.82c-.1.41-.37.98-.83,1.61-.55.76-1.24,1.2-1.97,1.27-.82.11-1.74-.3-2.8-1.07l-4.92-3.57-1.01,1.4-1.25-.91,1.01-1.4-2.16-1.57.73-1.91Z"/><path d="M92.57,131.25l-1.2-.74-.04.05c.3,1.03.18,2.45-.8,3.7-1.39,1.77-3.35,1.7-4.62.71-2.12-1.66-1.8-4.45.88-7.82l-.18-.14c-.72-.57-2.18-1.39-3.59.4-.64.81-1.05,1.86-1.14,2.79l-1.33-.46c.1-1.09.61-2.38,1.48-3.49,2.1-2.68,4.44-1.89,6.19-.52l3.27,2.57c.76.6,1.53,1.14,2.21,1.5l-1.14,1.45ZM87.92,127.98c-1.4,1.71-2.64,3.92-.94,5.26,1.03.81,2.06.5,2.7-.31.89-1.14.74-2.43.2-3.27-.12-.18-.27-.36-.44-.49l-1.52-1.19Z"/><ellipse cx="284.21" cy="282.55" rx="245.11" ry="243.45" fill="none"/><path d="M131.86,72.64c.71-.75,1.84-1.67,2.97-2.45,1.76-1.22,3.12-1.68,4.41-1.51,1.04.12,2,.74,2.68,1.73,1.17,1.68.88,3.53-.15,4.92l.04.06c1.22-.34,2.43.16,3.65,1.27,1.65,1.49,2.8,2.51,3.41,2.82l-1.7,1.18c-.46-.21-1.5-1.12-2.96-2.45-1.6-1.5-2.73-1.69-4.27-.71l-1.55,1.07,3.82,5.52-1.64,1.14-8.71-12.57ZM137.53,77.3l1.68-1.17c1.76-1.22,2.21-2.95,1.2-4.41-1.14-1.64-2.83-1.54-4.58-.35-.79.55-1.31,1.02-1.52,1.28l3.22,4.65Z"/><path d="M156.23,68.21c2.17,3.5.69,6.53-1.6,7.94-2.56,1.59-5.7.93-7.55-2.06-1.96-3.17-1.04-6.31,1.58-7.93,2.72-1.68,5.78-.85,7.57,2.04ZM148.79,72.96c1.28,2.07,3.45,2.9,5.13,1.85,1.64-1.02,1.92-3.33.6-5.46-.99-1.6-3.06-3.14-5.09-1.88s-1.75,3.68-.63,5.48Z"/><path d="M160.05,70.18c.71.05,1.84-.11,2.72-.6,1.28-.72,1.52-1.7,1.07-2.5-.47-.84-1.23-1.02-2.81-.77-2.09.36-3.46-.14-4.11-1.31-.88-1.56-.34-3.56,1.75-4.73.98-.55,2-.75,2.72-.74l.28,1.53c-.52-.03-1.4.05-2.3.55-1.04.59-1.29,1.51-.88,2.24.45.8,1.23.84,2.77.61,2.04-.3,3.38.05,4.19,1.5.96,1.7.31,3.65-2,4.95-1.06.6-2.19.89-3.1.87l-.31-1.59Z"/><path d="M167.77,62.36c1.28,2.42,3.35,2.63,5.16,1.72,1.29-.66,1.96-1.28,2.49-1.91l.96,1.14c-.49.61-1.41,1.49-2.99,2.29-3.06,1.55-5.9.47-7.42-2.52-1.52-2.99-.96-6.25,1.94-7.72,3.24-1.65,5.55.77,6.48,2.59.19.37.29.68.37.87l-6.97,3.54ZM172.41,58.38c-.56-1.16-1.96-2.69-3.99-1.66-1.83.93-1.77,3.02-1.28,4.34l5.27-2.68Z"/><ellipse cx="284.21" cy="282.55" rx="245.11" ry="243.45" transform="translate(-4.89 5) rotate(-1)" fill="none"/><path d="M40.21,305.97l-14.98,6.44-.2-2.15,7.39-3.1c2.02-.85,3.85-1.6,5.62-2.17v-.04c-1.83-.27-3.83-.74-5.91-1.24l-7.86-1.92-.19-2.13,15.94,4.12.2,2.2Z"/><path d="M25.16,295.67c.69-.06,1.27.41,1.31,1.22.04.71-.48,1.25-1.17,1.29-.71.04-1.29-.46-1.33-1.19-.04-.76.48-1.27,1.19-1.31ZM39.52,297.13l-11.11.62-.11-2.02,11.11-.62.11,2.02Z"/><path d="M33.3,282.01c4.11-.14,6,2.65,6.1,5.34.1,3.01-2.03,5.41-5.54,5.53-3.72.13-5.99-2.23-6.1-5.31-.11-3.19,2.14-5.43,5.54-5.55ZM33.71,290.83c2.44-.08,4.23-1.55,4.16-3.52-.07-1.93-1.93-3.32-4.44-3.23-1.88.06-4.24,1.09-4.16,3.48.08,2.39,2.32,3.35,4.44,3.28Z"/><path d="M22.79,279.13l.03-2.02,16.32.28-.03,2.02-16.32-.28Z"/><path d="M34.07,272.72c2.74.09,3.95-1.59,4.05-3.62.07-1.45-.13-2.33-.42-3.11l1.47-.27c.29.73.59,1.97.5,3.73-.17,3.42-2.53,5.35-5.88,5.18s-5.9-2.28-5.73-5.52c.19-3.63,3.43-4.43,5.47-4.33.41.02.73.08.94.12l-.4,7.81ZM32.93,266.72c-1.29-.09-3.31.36-3.43,2.64-.1,2.04,1.73,3.04,3.13,3.27l.3-5.9Z"/><path d="M25.83,259.03l3.19.29.26-2.89,1.53.14-.26,2.89,5.98.54c1.37.12,2.19-.2,2.29-1.32.05-.53.01-.92-.03-1.18l1.52.04c.13.4.18,1.03.11,1.81-.08.94-.45,1.67-1.04,2.1-.65.52-1.65.64-2.96.52l-6.05-.55-.16,1.72-1.53-.14.16-1.72-2.66-.24-.35-2.02Z"/><ellipse cx="284.21" cy="282.55" rx="261.54" ry="263.33" transform="translate(-94.33 414.13) rotate(-64)" fill="none"/><path d="M272.48,543.78c-.76.31-2.26.58-4.14.44-4.36-.31-7.44-3.3-7.08-8.38.35-4.84,3.87-7.89,8.66-7.54,1.93.14,3.11.64,3.62.95l-.6,1.59c-.73-.42-1.79-.77-3.08-.87-3.62-.26-6.2,1.88-6.49,5.95-.27,3.79,1.73,6.38,5.5,6.65,1.22.09,2.47-.08,3.31-.41l.3,1.61Z"/><path d="M275.87,533.24l2.27,6.64c.23.74.49,1.62.66,2.29h.05c.22-.66.48-1.51.77-2.3l2.37-6.47,2.14.06-3.24,7.85c-1.54,3.78-2.58,5.71-3.99,6.87-1.01.85-2.01,1.17-2.52,1.25l-.46-1.71c.51-.15,1.18-.45,1.8-.94.56-.42,1.27-1.19,1.76-2.21.1-.2.17-.36.17-.48s-.04-.28-.12-.53l-3.85-10.36,2.21.06Z"/><path d="M292.17,544.45l-.19-1.4h-.07c-.61.89-1.79,1.69-3.37,1.72-2.25.04-3.43-1.53-3.46-3.14-.05-2.69,2.32-4.2,6.62-4.25v-.23c-.02-.92-.3-2.57-2.58-2.53-1.04.02-2.11.36-2.88.88l-.48-1.33c.91-.61,2.24-1.03,3.64-1.05,3.4-.06,4.27,2.25,4.31,4.48l.07,4.16c.02.97.08,1.91.23,2.66l-1.84.03ZM291.77,538.78c-2.21,0-4.71.43-4.67,2.59.02,1.31.91,1.92,1.94,1.9,1.45-.02,2.35-.96,2.66-1.91.07-.21.11-.44.1-.65l-.03-1.93Z"/><path d="M297.02,536.19c-.07-1.15-.16-2.09-.29-3l1.79-.12.23,1.83h.05c.48-1.09,1.7-2.21,3.54-2.33,1.54-.1,3.98.67,4.23,4.48l.42,6.63-2.02.13-.41-6.41c-.11-1.79-.88-3.24-2.78-3.12-1.33.08-2.3,1.09-2.58,2.24-.08.26-.1.61-.08.95l.43,6.68-2.02.13-.52-8.1Z"/><ellipse cx="284.21" cy="282.55" rx="245.11" ry="243.45" fill="none"/><path d="M393.06,55.46c-2.15,4.89-6.26,6.17-9.88,4.58-3.75-1.65-5.1-5.71-3.21-10.01,1.98-4.51,6.08-6.22,9.87-4.55,3.88,1.7,5.07,5.78,3.22,9.99ZM381.95,50.85c-1.33,3.03-.89,6.47,2,7.74,2.91,1.28,5.72-.67,7.14-3.9,1.24-2.82,1.06-6.42-1.99-7.76-3.03-1.33-5.78.8-7.15,3.92Z"/><path d="M395.37,56.95c.58-1.17,1.06-2.19,1.46-3.15l1.59.79-.91,1.99.08.04c1.12-1.11,2.63-1.42,3.85-.81.21.1.34.19.48.32l-.85,1.71c-.17-.13-.34-.25-.59-.37-1.28-.63-2.67-.12-3.59,1.12-.16.23-.35.5-.5.8l-2.64,5.31-1.79-.89,3.41-6.86Z"/><path d="M403.87,70.02l.53-1.31-.06-.03c-.96.47-2.39.59-3.78-.17-1.98-1.08-2.23-3.02-1.46-4.44,1.29-2.36,4.09-2.51,7.86-.43l.11-.2c.44-.81,1.01-2.38-.99-3.47-.91-.5-2.01-.73-2.94-.66l.23-1.39c1.09-.08,2.45.21,3.69.88,2.99,1.63,2.61,4.06,1.54,6.02l-1.99,3.66c-.46.85-.87,1.7-1.12,2.43l-1.62-.88ZM406.33,64.89c-1.92-1.1-4.31-1.95-5.34-.05-.63,1.15-.16,2.12.75,2.61,1.27.69,2.52.32,3.25-.35.16-.15.31-.33.41-.51l.92-1.7Z"/><path d="M412.21,65.39c.6-.98,1.07-1.8,1.49-2.62l1.53.93-.86,1.63.04.02c1.02-.62,2.66-.83,4.23.12,1.32.8,2.88,2.83.9,6.09l-3.45,5.68-1.73-1.05,3.33-5.48c.93-1.53,1.14-3.16-.49-4.15-1.14-.69-2.51-.42-3.39.36-.21.17-.43.44-.61.73l-3.48,5.72-1.73-1.05,4.22-6.94Z"/><path d="M432.89,75.12c-.49.64-1.03,1.35-1.8,2.48l-3.64,5.34c-1.44,2.11-2.73,3.12-4.17,3.31-1.46.23-2.94-.39-4.1-1.17-1.1-.75-2.14-1.84-2.54-2.84l1.29-.99c.35.79,1.07,1.78,2.21,2.56,1.71,1.16,3.57,1.12,5.15-1.2l.7-1.03-.04-.03c-1.1.51-2.55.52-3.98-.45-2.28-1.55-2.6-4.6-.86-7.15,2.12-3.12,5.36-3.5,7.47-2.07,1.6,1.09,1.9,2.52,1.78,3.55l.04.03,1.02-1.34,1.46,1ZM428.68,77.58c.19-.29.34-.54.42-.83.36-1.18.08-2.53-1.13-3.36-1.6-1.09-3.66-.51-5.11,1.62-1.23,1.81-1.34,3.93.47,5.16,1.03.7,2.4.69,3.48-.13.29-.22.55-.52.74-.8l1.12-1.65Z"/><path d="M433.15,82.67c-1.61,2.21-.9,4.16.72,5.38,1.16.87,2.01,1.2,2.81,1.4l-.6,1.36c-.76-.17-1.96-.61-3.37-1.68-2.74-2.06-3.01-5.1-.99-7.78,2.02-2.68,5.2-3.6,7.78-1.65,2.9,2.19,1.75,5.32.51,6.96-.25.33-.48.56-.62.71l-6.24-4.71ZM438.76,85.09c.79-1.01,1.56-2.94-.26-4.32-1.63-1.23-3.49-.27-4.46.75l4.72,3.56Z"/><ellipse cx="284.21" cy="282.55" rx="243.45" ry="245.11" transform="translate(-12.83 551.57) rotate(-87)" fill="none"/><path d="M527.32,247.46c-.49-.66-1.1-2.05-1.42-3.91-.74-4.31,1.43-8.01,6.43-8.87,4.78-.82,8.58,1.87,9.39,6.6.33,1.9.12,3.18-.06,3.74l-1.69-.2c.23-.81.32-1.92.11-3.19-.61-3.58-3.31-5.57-7.32-4.88-3.74.64-5.77,3.21-5.14,6.92.21,1.2.67,2.38,1.19,3.11l-1.49.68Z"/><path d="M543.32,247.86l.24,2.01-6.9.8v.05c.61.25,1.17.7,1.59,1.27.41.56.72,1.24.81,1.99.17,1.49-.46,3.97-4.28,4.41l-6.58.77-.24-2.01,6.35-.74c1.78-.21,3.21-1.05,2.99-2.94-.15-1.3-1.19-2.22-2.33-2.46-.29-.08-.59-.07-.98-.02l-6.67.78-.23-2.01,16.22-1.9Z"/><path d="M528.88,268.42l1.39-.25v-.07c-.92-.56-1.78-1.7-1.88-3.28-.15-2.25,1.35-3.5,2.96-3.61,2.68-.18,4.31,2.11,4.58,6.4l.23-.02c.92-.06,2.55-.43,2.4-2.7-.07-1.03-.46-2.09-1.02-2.83l1.3-.55c.66.88,1.14,2.18,1.23,3.58.23,3.39-2.03,4.38-4.26,4.53l-4.15.28c-.96.07-1.9.17-2.65.36l-.12-1.83ZM534.53,267.73c-.1-2.2-.66-4.68-2.82-4.53-1.31.09-1.87,1-1.8,2.03.1,1.45,1.08,2.3,2.04,2.56.21.06.44.09.65.07l1.93-.13Z"/><path d="M536.77,272.96c1.31-.04,2.43-.1,3.47-.2l.05,1.77-2.18.13v.09c1.51.46,2.49,1.65,2.53,3.01,0,.23-.01.39-.05.58l-1.91.06c.04-.21.06-.42.05-.69-.04-1.42-1.15-2.4-2.68-2.63-.28-.04-.6-.07-.95-.06l-5.93.18-.06-2,7.65-.23Z"/><path d="M543.61,283.6h-3.2s0,2.89,0,2.89h-1.54s0-2.9,0-2.9l-6-.02c-1.38,0-2.16.38-2.17,1.51,0,.53.07.92.14,1.17l-1.52.09c-.16-.39-.27-1.01-.27-1.79,0-.94.3-1.7.86-2.18.6-.57,1.59-.78,2.9-.77l6.07.02v-1.72s1.55,0,1.55,0v1.72s2.66,0,2.66,0l.52,1.98Z"/><path d="M536.87,288.88c1.31.04,2.44.06,3.47.02l-.06,1.77h-2.19s0,.09,0,.09c1.48.56,2.38,1.8,2.33,3.16,0,.23-.04.39-.09.57l-1.91-.06c.05-.21.08-.41.09-.69.05-1.42-1-2.47-2.51-2.8-.28-.05-.6-.11-.94-.12l-5.93-.2.07-2,7.66.25Z"/><path d="M534.07,297.25c-2.73-.15-3.98,1.52-4.12,3.54-.1,1.44.09,2.33.36,3.11l-1.47.24c-.27-.73-.55-1.98-.43-3.74.24-3.42,2.63-5.3,5.98-5.07,3.35.24,5.85,2.4,5.62,5.63-.26,3.62-3.51,4.36-5.55,4.22-.41-.03-.73-.1-.94-.13l.55-7.8ZM535.09,303.27c1.28.11,3.32-.3,3.48-2.57.14-2.04-1.67-3.07-3.06-3.33l-.42,5.9Z"/><path d="M530.01,316.69c-1.14-.14-2.15-.23-3.03-.27l.21-1.78,1.82.1v-.05c-.82-.63-1.85-1.94-1.61-3.9.21-1.74,1.41-3.7,5.3-3.24l6.46.77-.24,2.01-6.12-.73c-2.1-.25-3.59.22-3.81,2.05-.16,1.35.67,2.4,1.51,2.87.28.15.64.26,1.01.31l6.78.81-.24,2.01-8.04-.96Z"/><path d="M528.59,319.55c-.48.53-1.06,1.5-1.23,2.5-.24,1.45.38,2.25,1.28,2.4.96.16,1.57-.32,2.36-1.71,1.03-1.86,2.27-2.61,3.59-2.39,1.77.29,2.99,1.96,2.6,4.32-.18,1.11-.66,2.04-1.13,2.59l-1.37-.74c.34-.39.84-1.12,1-2.14.19-1.18-.38-1.95-1.2-2.08-.91-.15-1.42.44-2.2,1.78-1.04,1.79-2.16,2.61-3.79,2.34-1.93-.32-3.04-2.04-2.61-4.65.2-1.2.68-2.27,1.26-2.96l1.44.75Z"/><path d="M529.88,330.46c-2.69-.51-4.15.97-4.56,2.95-.29,1.42-.22,2.33-.06,3.14l-1.49.04c-.17-.76-.28-2.03.08-3.77.7-3.36,3.32-4.9,6.61-4.22,3.29.68,5.48,3.16,4.82,6.33-.74,3.56-4.07,3.85-6.07,3.44-.41-.08-.71-.2-.91-.26l1.59-7.66ZM530.09,336.56c1.26.29,3.33.15,3.79-2.08.42-2-1.25-3.27-2.59-3.71l-1.2,5.79Z"/><ellipse cx="284.21" cy="282.55" rx="263.04" ry="261.26" fill="none"/><path d="M386.9,520.53c1.04.14,2.43.03,3.69-.53,1.87-.83,2.52-2.31,1.89-3.74-.59-1.32-1.68-1.74-3.92-1.63-2.68.21-4.64-.35-5.53-2.35-.98-2.21.12-4.66,2.87-5.88,1.45-.65,2.65-.78,3.44-.7l.16,1.72c-.57-.05-1.71-.05-2.99.52-1.93.86-2.15,2.34-1.72,3.31.59,1.32,1.74,1.59,4.03,1.48,2.81-.14,4.54.47,5.47,2.55.97,2.19.2,4.8-3.14,6.28-1.37.61-3.04.87-4.02.71l-.22-1.74Z"/><path d="M395.44,511.12c-.64-1.27-1.2-2.28-1.72-3.2l1.62-.82.94,1.66.04-.02c.13-1.58.94-2.89,2.56-3.71,2.4-1.21,5.24-.09,6.76,2.93,1.8,3.57.52,6.44-1.83,7.62-1.31.66-2.75.67-3.85-.02l-.04.02,2.73,5.4-1.79.9-5.43-10.76ZM398.56,512.87c.13.27.3.49.46.7.96,1.09,2.48,1.4,3.78.75,1.91-.96,2.23-3.08,1.08-5.36-1.01-1.99-2.91-3.17-4.82-2.2-1.23.62-1.94,2.08-1.6,3.62.05.26.12.55.25.8l.86,1.7Z"/><path d="M407.07,504.94c-.64-1.15-1.21-2.12-1.77-2.99l1.55-.86,1.12,1.88.08-.04c-.29-1.55.32-2.97,1.51-3.63.2-.11.35-.17.54-.22l.93,1.67c-.2.06-.4.14-.64.28-1.25.69-1.6,2.13-1.11,3.59.09.26.21.57.38.87l2.89,5.18-1.75.97-3.72-6.69Z"/><path d="M412.31,494.33c.37.58.22,1.32-.48,1.73-.61.36-1.33.14-1.68-.45-.36-.61-.19-1.36.45-1.73.65-.39,1.35-.16,1.71.46ZM417.63,507.75l-5.67-9.59,1.74-1.03,5.66,9.59-1.74,1.03Z"/><path d="M418.19,498c-.62-.97-1.15-1.75-1.7-2.49l1.51-.97,1.09,1.49.04-.03c-.11-1.19.42-2.75,1.97-3.75,1.3-.83,3.81-1.35,5.87,1.87l3.59,5.6-1.7,1.09-3.46-5.4c-.97-1.51-2.34-2.41-3.94-1.38-1.12.72-1.49,2.07-1.17,3.21.06.26.21.58.39.87l3.61,5.63-1.7,1.09-4.38-6.84Z"/><path d="M435,482.99c.43.68.92,1.44,1.7,2.54l3.76,5.26c1.48,2.08,1.98,3.65,1.66,5.06-.29,1.45-1.38,2.62-2.52,3.44-1.09.78-2.47,1.37-3.55,1.4l-.48-1.55c.87-.05,2.04-.38,3.17-1.19,1.69-1.2,2.29-2.96.66-5.25l-.72-1.01-.04.03c.1,1.2-.4,2.57-1.8,3.58-2.25,1.6-5.22.84-7.01-1.67-2.19-3.07-1.43-6.24.65-7.73,1.57-1.12,3.02-.91,3.95-.45l.04-.03-.9-1.42,1.44-1.03ZM435.85,487.78c-.2-.28-.39-.51-.63-.68-.98-.74-2.35-.95-3.55-.1-1.57,1.12-1.75,3.25-.25,5.35,1.27,1.78,3.22,2.62,5,1.35,1.01-.72,1.47-2.01,1.08-3.32-.11-.35-.3-.69-.5-.97l-1.16-1.63Z"/></g><g id="Layer_5"><circle cx="284.21" cy="284.21" r="275" fill="none"/><circle cx="284.21" cy="284.21" r="275" fill="none"/><path d="M284.85,5.52c.04,2.43-.84,3.79-2.42,3.82-1.4.02-2.36-1.27-2.43-3.64-.04-2.4.97-3.74,2.42-3.76,1.51-.02,2.39,1.3,2.43,3.58ZM280.97,5.69c.03,1.86.62,2.91,1.5,2.89.99-.02,1.44-1.18,1.41-3.01-.03-1.76-.5-2.91-1.5-2.89-.85.01-1.45,1.06-1.41,3.01Z"/><path d="M288.57,3.14c-.01.89-.74,1.46-1.5,1.45-.86-.01-1.43-.67-1.42-1.44,0-.85.67-1.47,1.49-1.46.9.02,1.44.71,1.43,1.46ZM286.25,3.16c0,.51.36.91.84.92.49,0,.88-.39.88-.93,0-.41-.23-.93-.85-.94-.57,0-.87.48-.87.95Z"/><circle cx="284.21" cy="284.21" r="275" fill="none"/><path d="M137.94,49.97c.33,0,1.01-.09,1.59-.45,1.06-.65.97-1.53.65-2.03-.53-.85-1.53-.74-2.32-.25l-.46.28-.38-.62.46-.28c.6-.37,1.17-1.15.72-1.87-.3-.49-.87-.73-1.63-.26-.49.3-.82.8-.97,1.15l-.58-.47c.17-.43.65-1.05,1.3-1.45,1.2-.74,2.18-.36,2.64.38.39.63.34,1.39-.24,2.13v.02c.85-.31,1.81-.12,2.33.73.6.97.37,2.29-1.1,3.19-.68.42-1.42.58-1.84.56l-.17-.78Z"/><path d="M142.73,47.03c.33.01,1.02-.07,1.6-.41,1.07-.63,1-1.51.69-2.01-.52-.86-1.51-.77-2.32-.3l-.46.27-.37-.63.46-.27c.61-.36,1.19-1.12.76-1.85-.29-.49-.86-.75-1.63-.3-.49.29-.84.79-.99,1.13l-.57-.48c.18-.43.67-1.03,1.33-1.42,1.21-.71,2.19-.31,2.63.44.37.64.31,1.4-.29,2.12v.02c.86-.29,1.81-.09,2.32.78.58.99.32,2.3-1.16,3.17-.69.41-1.43.54-1.85.52l-.15-.78Z"/><path d="M150.3,39.77c1.19,2.12,1.06,3.73-.33,4.51-1.22.68-2.68,0-3.86-2.05-1.17-2.09-.91-3.75.35-4.46,1.31-.74,2.72.02,3.83,2ZM146.96,41.76c.91,1.62,1.92,2.26,2.69,1.83.86-.48.71-1.72-.18-3.32-.86-1.54-1.82-2.32-2.69-1.83-.74.41-.77,1.62.18,3.32Z"/><path d="M152.36,35.87c.42.79.07,1.64-.6,2-.76.41-1.58.11-1.94-.57-.41-.74-.13-1.62.58-2,.79-.43,1.6-.09,1.96.57ZM150.34,37.02c.24.45.76.62,1.18.39.44-.23.57-.77.32-1.25-.19-.36-.65-.7-1.2-.4-.5.27-.52.84-.3,1.26Z"/><circle cx="284.21" cy="284.21" r="275" fill="none"/><path d="M39.87,155.47c.29-.16.83-.59,1.15-1.18.59-1.09.07-1.81-.46-2.08-.89-.46-1.69.13-2.13.95l-.25.47-.64-.34.25-.48c.33-.62.43-1.58-.31-1.98-.5-.27-1.12-.19-1.54.59-.27.5-.31,1.11-.26,1.48l-.74-.11c-.06-.46.04-1.23.4-1.91.67-1.24,1.7-1.41,2.47-1,.65.35.99,1.03.86,1.96h.02c.57-.68,1.49-1,2.37-.53,1.01.54,1.47,1.8.66,3.31-.38.71-.94,1.21-1.31,1.41l-.53-.59Z"/><path d="M42.56,145.33c2.12,1.19,2.84,2.64,2.07,4.02-.69,1.22-2.29,1.4-4.36.26-2.09-1.18-2.73-2.73-2.02-3.99.74-1.31,2.33-1.4,4.31-.28ZM40.75,148.77c1.62.91,2.82.93,3.25.17.49-.86-.29-1.84-1.88-2.74-1.53-.86-2.76-1.04-3.25-.17-.42.74.18,1.78,1.88,2.74Z"/><path d="M45.45,140.44c2.09,1.24,2.79,2.7,1.98,4.06-.71,1.2-2.32,1.35-4.36.16-2.06-1.22-2.67-2.78-1.93-4.03.77-1.3,2.36-1.35,4.32-.19ZM43.56,143.84c1.6.95,2.8.99,3.25.24.5-.85-.25-1.85-1.82-2.78-1.51-.9-2.74-1.1-3.25-.24-.43.73.14,1.78,1.82,2.78Z"/><path d="M45.27,136.05c.76.47.88,1.38.48,2.03-.45.73-1.31.89-1.96.49-.73-.43-.93-1.33-.5-2.02.47-.77,1.34-.88,1.98-.49ZM44.1,138.05c.43.26.96.15,1.22-.26.26-.42.11-.95-.35-1.24-.35-.21-.91-.28-1.24.26-.3.49-.03.99.38,1.24Z"/><circle cx="284.21" cy="284.21" r="275" fill="none"/><path d="M51.26,430.44l-.5.31-1.03-.26c-2.44-.64-3.66-.86-4.58-.3-.62.38-1,1.03-.44,1.94.34.55.9.84,1.31.97l-.42.62c-.62-.2-1.25-.64-1.68-1.34-.81-1.31-.25-2.42.62-2.96,1.12-.69,2.53-.44,4.56.08l.75.21h.02s-1.69-2.74-1.69-2.74l.68-.42,2.4,3.88Z"/><path d="M40.7,425.21l1.38,2.35,1.72-.7c-.1-.13-.2-.25-.33-.48-.28-.47-.45-1.01-.45-1.52-.01-.64.29-1.36,1.06-1.81,1.2-.71,2.67-.28,3.46,1.05.4.67.54,1.35.53,1.76l-.76.17c0-.34-.11-.96-.44-1.52-.46-.79-1.37-1.16-2.2-.67-.79.48-1.05,1.34-.32,2.58.21.35.41.6.57.81l-3.19,1.34-1.74-2.95.7-.41Z"/><path d="M39.98,418.49c2.12-1.19,3.73-1.06,4.5.32.68,1.22,0,2.68-2.04,3.86-2.09,1.17-3.75.92-4.46-.34-.74-1.31.01-2.72,1.99-3.83ZM41.97,421.82c1.62-.91,2.26-1.93,1.83-2.69-.48-.86-1.72-.71-3.31.19-1.53.86-2.32,1.82-1.83,2.69.42.74,1.62.77,3.31-.19Z"/><path d="M36.07,416.43c.78-.42,1.64-.07,2,.59.41.75.11,1.58-.56,1.94-.74.41-1.61.14-2-.58-.43-.79-.09-1.6.57-1.96ZM37.23,418.45c.45-.24.62-.76.39-1.18-.24-.43-.77-.57-1.25-.31-.36.19-.7.65-.4,1.2.27.5.84.52,1.26.29Z"/><circle cx="284.21" cy="284.21" r="275" fill="none"/><path d="M155.38,527.24l-.28.52-1.02.29c-2.44.66-3.6,1.08-4.13,2.02-.35.64-.36,1.4.58,1.91.57.31,1.2.28,1.62.19l-.05.75c-.63.13-1.4.07-2.13-.33-1.35-.73-1.42-1.97-.93-2.87.63-1.16,1.98-1.64,4-2.2l.75-.19v-.02s-2.81-1.53-2.81-1.53l.38-.71,4.01,2.18Z"/><path d="M150.45,524.55l-.29.52-1.02.27c-2.45.61-3.62,1.01-4.16,1.94-.36.63-.38,1.39.54,1.92.56.32,1.2.3,1.62.22l-.07.75c-.64.12-1.4.04-2.12-.37-1.34-.76-1.38-2-.88-2.89.65-1.15,2.01-1.6,4.04-2.12l.76-.18v-.02s-2.78-1.59-2.78-1.59l.4-.7,3.97,2.25Z"/><path d="M139.63,522.48c1.24-2.09,2.71-2.78,4.07-1.97,1.2.72,1.34,2.32.15,4.37-1.23,2.06-2.79,2.66-4.04,1.92-1.29-.77-1.34-2.36-.18-4.32ZM143.02,524.37c.95-1.6,1-2.79.25-3.25-.85-.51-1.85.24-2.78,1.81-.9,1.51-1.1,2.73-.25,3.25.73.43,1.79-.14,2.78-1.81Z"/><path d="M135.24,522.64c.47-.76,1.38-.88,2.03-.48.73.45.88,1.31.48,1.96-.44.73-1.33.92-2.02.49-.77-.47-.88-1.34-.48-1.98ZM137.24,523.81c.27-.43.16-.96-.26-1.22-.42-.26-.95-.11-1.24.35-.21.35-.28.91.25,1.24.49.3.99.03,1.24-.37Z"/><circle cx="284.21" cy="284.21" r="275" fill="none"/><path d="M531.62,418.05v-.02s.01-1.41.01-1.41l.74.19v1.77s-.4.72-.4.72l-6.28-3.41.45-.82,5.49,2.98Z"/><path d="M524.46,418.12l.52.29.26,1.02c.6,2.45,1,3.62,1.93,4.16.63.36,1.39.39,1.92-.54.32-.56.3-1.19.23-1.62l.75.07c.12.64.04,1.4-.37,2.12-.76,1.34-2,1.38-2.89.87-1.15-.65-1.6-2.01-2.11-4.04l-.18-.76h-.02s-1.59,2.78-1.59,2.78l-.7-.4,2.26-3.96Z"/><path d="M522.36,428.96c-2.09-1.25-2.78-2.71-1.96-4.07.72-1.2,2.33-1.34,4.37-.14,2.06,1.23,2.66,2.8,1.92,4.04-.77,1.29-2.37,1.34-4.32.17ZM524.26,425.57c-1.6-.95-2.8-1-3.25-.25-.51.85.24,1.85,1.81,2.79,1.51.9,2.74,1.11,3.25.25.43-.73-.14-1.79-1.81-2.79Z"/><path d="M522.53,433.36c-.76-.47-.88-1.38-.48-2.03.45-.73,1.31-.88,1.97-.48.73.44.92,1.33.49,2.03-.48.77-1.34.88-1.98.48ZM523.7,431.36c-.43-.27-.96-.16-1.22.25-.26.42-.11.95.35,1.24.35.21.91.28,1.24-.25.3-.49.03-.99-.37-1.24Z"/><circle cx="284.21" cy="284.21" r="275" fill="none"/><path d="M431.37,523.92h.02s.71-1.23.71-1.23l.54.53-.89,1.53-.7.43-3.74-6.09.8-.49,3.27,5.32Z"/><path d="M424.64,528.05l2.35-1.38-.69-1.72c-.13.1-.25.2-.48.33-.47.28-1.01.45-1.52.45-.65,0-1.36-.29-1.81-1.07-.71-1.21-.28-2.67,1.06-3.45.67-.4,1.35-.54,1.76-.52l.17.76c-.35,0-.96.1-1.52.43-.79.46-1.16,1.37-.68,2.2.48.79,1.34,1.05,2.58.33.35-.21.6-.41.82-.57l1.34,3.2-2.95,1.73-.41-.7Z"/><path d="M417.91,528.76c-1.19-2.12-1.06-3.73.33-4.51,1.22-.68,2.68,0,3.86,2.05,1.17,2.09.91,3.75-.35,4.46-1.32.74-2.72-.02-3.83-2ZM421.25,526.77c-.91-1.62-1.92-2.26-2.69-1.83-.86.48-.71,1.72.18,3.32.86,1.54,1.82,2.32,2.69,1.83.74-.41.77-1.62-.18-3.32Z"/><path d="M415.84,532.65c-.42-.79-.07-1.64.6-2,.76-.41,1.58-.11,1.94.57.41.74.13,1.61-.59,2-.79.43-1.6.09-1.96-.57ZM417.86,531.5c-.24-.45-.76-.62-1.18-.39-.44.23-.57.77-.32,1.24.19.36.65.7,1.2.4.5-.27.52-.84.3-1.26Z"/><circle cx="284.21" cy="284.21" r="275" fill="none"/><path d="M526.89,141.53c-.09-.18-.23-.39-.41-.6-1-1.17-2.36-1.29-3.46-.83l.02.03c.56.06,1.19.38,1.59,1.06.65,1.09.32,2.32-.88,3.04-1.12.67-2.62.53-3.38-.75-.79-1.31-.28-2.78,1.32-3.74,1.21-.72,2.42-.86,3.39-.62.81.21,1.52.71,2.08,1.42.18.22.32.42.41.58l-.68.41ZM523.21,143.41c.88-.52,1.11-1.34.65-2.11-.3-.5-.89-.78-1.47-.74-.13,0-.27.04-.42.12-1,.62-1.47,1.53-.95,2.4.43.72,1.31.84,2.19.32Z"/><path d="M527.63,148.48c-2.11,1.2-3.72,1.08-4.51-.29-.69-1.21-.02-2.68,2.02-3.87,2.08-1.19,3.74-.94,4.46.32.75,1.31,0,2.72-1.97,3.85ZM525.61,145.16c-1.61.92-2.25,1.94-1.81,2.7.49.86,1.73.7,3.31-.21,1.53-.87,2.31-1.83,1.81-2.7-.42-.74-1.62-.76-3.31.21Z"/><path d="M531.53,150.48c-.78.43-1.64.08-2-.58-.41-.75-.12-1.58.55-1.95.74-.42,1.61-.15,2.01.57.43.79.1,1.6-.55,1.96ZM530.37,148.48c-.44.24-.61.76-.38,1.19.24.43.78.57,1.25.31.36-.2.69-.66.39-1.21-.28-.5-.85-.51-1.26-.29Z"/><circle cx="284.21" cy="284.21" r="275" fill="none"/><path d="M416.75,41.92c.15.29.58.84,1.16,1.17,1.08.61,1.81.1,2.09-.42.48-.88-.1-1.69-.92-2.15l-.47-.26.35-.63.47.26c.61.34,1.57.46,1.98-.28.28-.5.21-1.12-.57-1.55-.5-.28-1.1-.33-1.48-.28l.12-.74c.46-.06,1.23.06,1.9.43,1.23.69,1.38,1.73.96,2.48-.36.64-1.05.98-1.97.83v.02c.67.58.97,1.51.49,2.38-.56,1-1.82,1.44-3.32.6-.7-.39-1.19-.95-1.39-1.33l.59-.52Z"/><path d="M426.84,44.77c-1.23,2.1-2.68,2.8-4.05,2-1.21-.71-1.36-2.31-.19-4.36,1.21-2.07,2.77-2.69,4.02-1.95,1.3.76,1.36,2.35.21,4.32ZM423.44,42.9c-.94,1.6-.98,2.8-.22,3.25.85.5,1.85-.26,2.77-1.83.89-1.52,1.08-2.74.22-3.25-.73-.43-1.78.15-2.77,1.83Z"/><path d="M431.24,44.57c-.46.76-1.38.89-2.02.5-.73-.45-.89-1.3-.5-1.96.43-.73,1.33-.93,2.02-.51.77.47.89,1.34.5,1.97ZM429.23,43.41c-.26.43-.15.96.27,1.22.42.26.95.1,1.23-.36.21-.35.27-.92-.26-1.24-.49-.3-.99-.02-1.24.38Z"/><circle cx="284.21" cy="284.21" r="275" fill="none"/><path d="M9.36,293.88l-.59.02-.76-.74c-1.79-1.78-2.73-2.58-3.81-2.56-.73.02-1.39.39-1.36,1.46.02.65.36,1.18.65,1.5l-.67.33c-.43-.48-.76-1.18-.78-2-.04-1.54,1-2.22,2.02-2.24,1.32-.03,2.41.89,3.9,2.36l.54.56h.02s-.08-3.21-.08-3.21l.8-.02.12,4.57Z"/><path d="M2.02,283.73h.64s6.56,2.99,6.56,2.99l.02,1-6.38-3h-.02s.06,3.5.06,3.5h-.8s-.07-4.5-.07-4.5Z"/><path d="M5.62,277.86c2.43.04,3.76.96,3.73,2.55-.02,1.4-1.35,2.32-3.71,2.3-2.4-.04-3.7-1.1-3.68-2.55.02-1.51,1.38-2.34,3.66-2.3ZM5.67,281.75c1.86.03,2.93-.52,2.94-1.4.02-.99-1.13-1.48-2.96-1.51-1.76-.03-2.92.4-2.94,1.4-.01.85,1.01,1.48,2.96,1.51Z"/><path d="M3.27,274.11c.89.03,1.45.76,1.43,1.52-.03.86-.69,1.42-1.46,1.4-.85-.01-1.47-.69-1.44-1.51.03-.9.73-1.43,1.47-1.41ZM3.26,276.43c.51.02.91-.35.93-.83.02-.5-.38-.88-.92-.9-.41-.01-.93.21-.95.84-.02.57.47.87.94.89Z"/><circle cx="284.21" cy="284.21" r="275" fill="none"/><path d="M559.82,277.88c-.02.21,0,.45.05.78.09.56.33,1.08.72,1.48.44.47,1.07.8,1.92.92v-.03c-.49-.39-.79-.96-.8-1.67-.02-1.29.93-2.13,2.15-2.15,1.35-.02,2.56.94,2.58,2.4s-1.15,2.38-2.98,2.42c-1.57.03-2.68-.48-3.38-1.18-.55-.54-.89-1.29-.99-2.06-.06-.35-.08-.66-.07-.89h.79ZM563.94,278.16c-.89.01-1.51.56-1.5,1.4.01.65.34,1.15.77,1.4.09.05.2.08.35.08,1.22-.02,2.15-.49,2.13-1.5-.01-.83-.75-1.4-1.76-1.38Z"/><path d="M562.81,287.72c-2.43-.04-3.76-.96-3.73-2.55.02-1.4,1.35-2.32,3.71-2.3,2.4.04,3.7,1.1,3.68,2.55-.02,1.51-1.38,2.34-3.66,2.3ZM562.77,283.84c-1.86-.03-2.92.52-2.94,1.4-.02.99,1.13,1.48,2.96,1.51,1.76.03,2.92-.4,2.94-1.4.01-.85-1.01-1.48-2.96-1.51Z"/><path d="M565.23,291.41c-.89-.02-1.46-.74-1.45-1.5.02-.86.68-1.43,1.45-1.41.85,0,1.47.68,1.46,1.49-.02.9-.71,1.44-1.46,1.42ZM565.22,289.09c-.51,0-.91.36-.92.84,0,.5.39.88.93.89.41,0,.93-.22.94-.85.01-.57-.48-.87-.95-.88Z"/><circle cx="284.21" cy="284.21" r="275" fill="none"/><path d="M292.02,565.35h.02s1.23-.7,1.23-.7l.21.73-1.54.88-.83.02-.19-7.15.93-.02.17,6.25Z"/><path d="M288.46,560.98c.01.9-.51,1.55-1.39,1.94v.03c.81.36,1.16.97,1.17,1.59.02,1.13-.93,1.92-2.18,1.94-1.39.02-2.09-.83-2.11-1.73-.01-.61.28-1.26,1.15-1.69v-.03c-.9-.34-1.46-.96-1.47-1.82-.02-1.24,1.03-2.1,2.4-2.12,1.5-.03,2.41.85,2.43,1.9ZM284.61,561.08c.01.87.63,1.28,1.6,1.54.83-.26,1.27-.81,1.26-1.5.02-.73-.54-1.36-1.45-1.34-.87.01-1.42.56-1.41,1.3ZM287.33,564.62c-.01-.71-.56-1.09-1.39-1.3-.61.22-1.08.67-1.07,1.32,0,.57.36,1.16,1.23,1.15.8-.01,1.23-.55,1.22-1.17Z"/><path d="M277.94,562.79c.04-2.43.96-3.76,2.55-3.73,1.4.02,2.32,1.35,2.3,3.71-.04,2.4-1.1,3.7-2.55,3.68-1.51-.02-2.34-1.38-2.31-3.66ZM281.83,562.75c.03-1.86-.52-2.92-1.4-2.94-.99-.02-1.48,1.13-1.51,2.96-.03,1.76.4,2.92,1.4,2.94.85.01,1.48-1.01,1.51-2.96Z"/><path d="M274.23,565.15c.03-.89.76-1.45,1.52-1.43.86.03,1.42.69,1.4,1.46-.01.85-.69,1.47-1.51,1.44-.9-.03-1.43-.72-1.41-1.47ZM276.55,565.16c.01-.51-.35-.91-.83-.93-.5-.01-.88.38-.9.92-.01.41.22.93.84.95.57.02.87-.47.89-.94Z"/></g></svg>