<?xml version="1.0" encoding="UTF-8"?><svg xmlns="http://www.w3.org/2000/svg" viewBox="0 0 1080.18 1034.32"><g id="Layer_1"><path d="M365.5,303.82c63.24,0,122.73,16.09,174.59,44.39,51.86-28.3,111.35-44.39,174.59-44.39,69.56,0,134.57,19.46,189.9,53.23C900.09,159.37,738.44.5,539.68.5S179,159.64,174.77,357.56c55.5-34.08,120.82-53.74,190.73-53.74Z" fill="#ed1c24" stroke="#fff" stroke-miterlimit="10"/><path d="M904.58,357.05c.06,2.81.1,5.62.1,8.45,0,131.67-69.73,247.06-174.27,311.26h0s0,0,0,0c0,0,0,0,0,0-2.87,134.63-78.63,251.31-189.4,312.17-111.34-60.35-187.75-176.92-191.18-311.64-.01,0-.02-.02-.04-.02,4.49,197.68,166.14,356.55,364.9,356.55s365-163.42,365-365c0-132.02-70.1-247.67-175.1-311.77Z" fill="#fff200" stroke="#fff" stroke-miterlimit="10"/><path d="M349.82,677.29c-105.02-64.09-175.13-179.75-175.13-311.79,0-2.65.03-5.3.09-7.94,3.47-2.13,6.97-4.2,10.52-6.22C74.93,414.12.5,532.78.5,668.82c0,201.58,163.42,365,365,365,63.61,0,123.42-16.28,175.5-44.89-111.34-60.35-187.75-176.92-191.18-311.64Z" fill="#2e3192" stroke="#fff" stroke-miterlimit="10"/></g><g id="Layer_2"><path d="M719.89,682.97s0,0-.01,0c-5.29,3.01-10.65,5.88-16.1,8.63-.06.03-.11.06-.17.09-3.62,1.82-7.26,3.58-10.95,5.29-.03.01-.06.03-.1.04-1.82.84-3.66,1.67-5.49,2.48-.03.01-.05.02-.08.04-3.67,1.62-7.38,3.19-11.12,4.69-.15.06-.3.12-.45.18-3.72,1.49-7.46,2.92-11.23,4.29-.09.03-.18.06-.27.1-1.77.64-3.55,1.27-5.33,1.88-.19.06-.38.13-.56.19-3.73,1.28-7.48,2.49-11.26,3.65-.26.08-.52.16-.79.24-1.75.53-3.51,1.05-5.27,1.56-.12.04-.25.07-.37.11-1.92.55-3.85,1.09-5.79,1.61-.15.04-.31.08-.46.12-1.72.46-3.44.9-5.17,1.34-.33.08-.67.17-1,.25-3.77.94-7.56,1.81-11.37,2.63-.36.08-.73.15-1.09.23-1.61.34-3.23.67-4.85.99-.33.06-.66.13-.99.2-1.91.37-3.83.73-5.76,1.07-.2.04-.4.07-.6.1-1.69.3-3.39.58-5.1.86-.46.07-.92.15-1.38.22-1.72.27-3.44.53-5.17.78-.19.03-.38.06-.57.08-1.91.27-3.83.52-5.75.76-.44.05-.88.11-1.32.16-1.53.19-3.07.36-4.61.53-.47.05-.95.1-1.42.15-1.92.2-3.84.39-5.76.56-.18.02-.36.03-.53.04-1.74.15-3.49.29-5.24.41-.54.04-1.07.08-1.61.11-1.58.11-3.15.2-4.73.29-.38.02-.77.05-1.15.07-1.92.1-3.84.18-5.77.25-.46.02-.92.03-1.38.04-1.53.05-3.06.09-4.59.12-.55.01-1.1.02-1.65.03-1.95.03-3.9.05-5.85.05s-3.89-.02-5.83-.05c-.55,0-1.1-.02-1.65-.03-1.51-.03-3.02-.07-4.53-.12-.48-.02-.96-.03-1.43-.05-1.92-.07-3.83-.15-5.74-.25-.36-.02-.73-.04-1.09-.06-1.58-.09-3.17-.18-4.75-.29-.55-.04-1.1-.08-1.65-.11-1.65-.12-3.29-.25-4.93-.39-.28-.02-.56-.04-.84-.07-1.9-.17-3.8-.35-5.7-.55-.48-.05-.95-.1-1.42-.15-1.5-.16-2.99-.33-4.48-.51-.49-.06-.98-.12-1.47-.18-1.9-.24-3.8-.48-5.69-.75-.09-.01-.18-.03-.27-.04-1.8-.25-3.59-.52-5.38-.8-.49-.08-.98-.15-1.47-.23-1.55-.25-3.1-.51-4.65-.78-.35-.06-.71-.12-1.06-.18-1.88-.33-3.76-.68-5.63-1.04-.32-.06-.64-.13-.95-.19-1.58-.31-3.15-.63-4.72-.96-.45-.09-.9-.19-1.35-.29-1.81-.39-3.62-.78-5.42-1.2-.03,0-.07-.01-.1-.02-1.88-.43-3.76-.88-5.63-1.35-.38-.09-.76-.19-1.14-.29-1.55-.39-3.1-.79-4.64-1.19-.35-.09-.7-.18-1.05-.28-1.87-.5-3.74-1.01-5.6-1.55-.04-.01-.08-.02-.12-.04-1.78-.51-3.55-1.03-5.32-1.57-.37-.11-.74-.23-1.12-.34-1.67-.51-3.33-1.03-4.99-1.56-.15-.05-.3-.09-.45-.14-1.86-.6-3.71-1.22-5.55-1.84-.22-.08-.45-.15-.67-.23-1.61-.55-3.22-1.12-4.82-1.69-.31-.11-.62-.22-.93-.34-3.62-1.31-7.22-2.68-10.79-4.1-.27-.11-.54-.22-.81-.32-1.61-.65-3.22-1.3-4.82-1.97-.19-.08-.37-.15-.56-.23-3.58-1.5-7.13-3.07-10.66-4.68-.25-.12-.51-.23-.76-.35-3.53-1.63-7.03-3.31-10.5-5.04-.15-.07-.29-.15-.43-.22-1.6-.81-3.2-1.62-4.79-2.45-.19-.1-.38-.2-.58-.3-3.44-1.8-6.85-3.65-10.22-5.56-.2-.11-.39-.22-.59-.33-1.61-.91-3.21-1.84-4.81-2.77-.06-.04-.12-.07-.18-.11-1.72-1.01-3.43-2.03-5.13-3.07-.01-.48-.02-.96-.04-1.44,2.92,135.32,79.49,252.51,191.22,313.07,110.77-60.86,186.53-177.54,189.4-312.17-3.47,2.13-6.97,4.2-10.51,6.22Z" fill="#00a651" stroke="#fff" stroke-miterlimit="10"/><path d="M904.58,357.05c-55.32-33.77-120.34-53.23-189.9-53.23-65.25,0-126.49,17.12-179.49,47.12,1.62-.92,3.25-1.83,4.89-2.72,1.38.75,2.75,1.51,4.11,2.27.28.16.56.32.84.47,1.4.79,2.79,1.59,4.18,2.4.29.17.57.33.86.5,3.24,1.9,6.44,3.85,9.61,5.85.31.2.63.4.94.6,1.39.88,2.78,1.78,4.17,2.68.19.12.38.24.56.36,1.59,1.04,3.17,2.1,4.74,3.16.17.11.33.23.5.34,1.38.94,2.75,1.88,4.11,2.84.31.22.62.43.92.65,3.05,2.15,6.07,4.35,9.06,6.6.26.2.52.4.79.59,1.27.96,2.53,1.92,3.78,2.9.27.21.53.41.8.62,2.94,2.29,5.83,4.63,8.7,7.01.29.25.59.49.88.74,1.25,1.05,2.5,2.1,3.74,3.17.17.15.35.3.52.45,1.43,1.23,2.84,2.47,4.25,3.72.17.15.35.31.52.47,1.21,1.08,2.42,2.18,3.62,3.28.29.26.57.53.86.79,2.73,2.52,5.41,5.08,8.06,7.68.25.25.51.5.76.75,1.11,1.09,2.21,2.2,3.31,3.31.25.25.5.5.74.75,1.31,1.34,2.62,2.69,3.91,4.04.02.02.04.04.06.07,1.24,1.3,2.46,2.61,3.68,3.93.28.3.55.6.83.9,1.09,1.18,2.17,2.38,3.24,3.57.16.18.33.37.49.55,1.24,1.39,2.47,2.79,3.69,4.21.19.21.37.43.55.65,1.03,1.19,2.04,2.39,3.05,3.6.27.32.54.64.8.96,2.36,2.84,4.67,5.71,6.94,8.61.24.31.48.62.72.93.93,1.2,1.86,2.41,2.77,3.62.23.3.46.61.69.91,1.12,1.49,2.22,2.98,3.32,4.48.06.08.12.16.18.24,1.01,1.39,2.02,2.8,3.01,4.21.26.36.51.73.77,1.09.9,1.29,1.8,2.58,2.68,3.88.16.23.32.46.47.69,1.04,1.53,2.06,3.07,3.07,4.61.18.28.36.56.55.84.83,1.28,1.66,2.56,2.47,3.85.24.38.48.76.72,1.14.96,1.53,1.92,3.06,2.85,4.61,0,.02.02.03.03.05.96,1.58,1.91,3.17,2.85,4.77.22.38.44.75.66,1.13.75,1.28,1.48,2.56,2.21,3.85.2.36.41.72.61,1.08.9,1.61,1.8,3.22,2.68,4.85.09.16.17.32.25.47.79,1.46,1.56,2.92,2.33,4.38.22.43.44.85.66,1.28.71,1.37,1.41,2.74,2.1,4.12.14.28.28.56.42.84.82,1.64,1.63,3.3,2.42,4.95.17.35.33.69.49,1.04.64,1.34,1.27,2.69,1.89,4.04.2.44.4.88.61,1.32.74,1.63,1.48,3.26,2.2,4.91.02.04.03.08.05.11.74,1.69,1.46,3.39,2.18,5.09.18.44.37.88.55,1.32.56,1.34,1.11,2.69,1.65,4.04.17.41.33.83.5,1.24.68,1.71,1.35,3.43,2,5.15.09.23.17.47.26.7.56,1.5,1.12,3,1.66,4.51.18.48.35.97.52,1.45.51,1.44,1.02,2.88,1.52,4.33.11.32.22.64.33.96.59,1.74,1.17,3.49,1.74,5.25.13.41.26.81.39,1.22.45,1.4.88,2.8,1.31,4.2.15.49.3.98.45,1.47.52,1.73,1.03,3.46,1.52,5.19.01.05.03.1.04.14.51,1.78,1,3.58,1.48,5.37.13.49.26.98.39,1.48.37,1.4.73,2.81,1.08,4.22.11.45.23.9.34,1.36.44,1.8.88,3.61,1.29,5.42.07.29.13.58.2.87.35,1.54.69,3.09,1.02,4.64.11.53.22,1.06.33,1.58.32,1.51.62,3.02.92,4.53.07.35.14.69.21,1.04.35,1.83.69,3.67,1.02,5.5.08.45.16.91.23,1.36.25,1.45.49,2.89.72,4.35.08.53.17,1.06.25,1.58.29,1.83.56,3.66.82,5.5,0,.03,0,.07.01.1.26,1.87.5,3.74.74,5.62.07.53.13,1.06.19,1.59.17,1.46.34,2.92.5,4.38.05.48.11.97.16,1.45.19,1.88.38,3.76.54,5.64.03.34.06.68.08,1.02.13,1.58.26,3.16.37,4.74.04.56.08,1.13.12,1.69.11,1.58.2,3.15.29,4.74.02.35.04.71.06,1.06.1,1.9.18,3.81.25,5.73.02.49.03.97.05,1.46.05,1.49.09,2.99.12,4.49.01.55.02,1.1.03,1.65.03,1.93.05,3.87.05,5.81,0,2.57-.03,5.14-.09,7.7,0,.08,0,.16,0,.24-3.47,2.13-6.97,4.2-10.51,6.21,110.36-62.78,184.79-181.43,184.79-317.47,0-2.82-.04-5.64-.1-8.45Z" fill="#f7941d" stroke="#fff" stroke-miterlimit="10"/><path d="M349.82,677.29c-.02-.78-.05-1.57-.06-2.35-.02-1.13-.03-2.27-.04-3.4-.01-1.1-.03-2.19-.03-3.29,0-1.04,0-2.09.02-3.13,0-.41,0-.83.01-1.24,1.81-136.26,78.28-254.49,190.37-315.66,1.38.75,2.75,1.51,4.11,2.27.07.04.15.08.22.12-52.87-29.79-113.91-46.79-178.92-46.79-69.91,0-135.22,19.66-190.73,53.74-.06,2.64-.09,5.28-.09,7.94,0,134.17,72.4,251.44,180.26,314.86-1.72-1.01-3.43-2.03-5.13-3.07Z" fill="#7f3f98" stroke="#fff" stroke-miterlimit="10"/></g><g id="Layer_3"><path d="M730.42,661.35c-.03-1.5-.07-2.99-.12-4.49-.02-.49-.03-.97-.05-1.46-.07-1.91-.15-3.82-.25-5.73-.02-.35-.04-.71-.06-1.06-.09-1.58-.18-3.16-.29-4.74-.04-.56-.08-1.13-.12-1.69-.11-1.58-.24-3.16-.37-4.74-.03-.34-.05-.68-.08-1.02-.17-1.89-.35-3.77-.54-5.64-.05-.48-.1-.97-.16-1.45-.16-1.46-.32-2.92-.5-4.38-.06-.53-.13-1.06-.19-1.59-.23-1.88-.48-3.75-.74-5.62,0-.03,0-.07-.01-.1-.26-1.84-.53-3.67-.82-5.5-.08-.53-.17-1.06-.25-1.58-.23-1.45-.47-2.9-.72-4.35-.08-.45-.15-.91-.23-1.36-.33-1.84-.66-3.67-1.02-5.5-.07-.35-.14-.69-.21-1.04-.3-1.51-.6-3.03-.92-4.53-.11-.53-.22-1.06-.33-1.58-.33-1.55-.67-3.1-1.02-4.64-.07-.29-.13-.58-.2-.87-.42-1.81-.85-3.62-1.29-5.42-.11-.45-.23-.9-.34-1.36-.35-1.41-.71-2.82-1.08-4.22-.13-.49-.26-.99-.39-1.48-.48-1.8-.97-3.59-1.48-5.37-.01-.05-.03-.1-.04-.14-.49-1.74-1-3.47-1.52-5.19-.15-.49-.3-.98-.45-1.47-.43-1.4-.87-2.81-1.31-4.2-.13-.41-.26-.81-.39-1.22-.57-1.76-1.15-3.51-1.74-5.25-.11-.32-.22-.64-.33-.96-.5-1.45-1-2.89-1.52-4.33-.17-.48-.35-.97-.52-1.45-.55-1.51-1.1-3.01-1.66-4.51-.09-.23-.17-.47-.26-.7-.65-1.72-1.32-3.44-2-5.15-.16-.41-.33-.83-.5-1.24-.54-1.35-1.09-2.7-1.65-4.04-.18-.44-.36-.88-.55-1.32-.72-1.7-1.44-3.4-2.18-5.09-.02-.04-.03-.08-.05-.11-.72-1.64-1.46-3.28-2.2-4.91-.2-.44-.4-.88-.61-1.32-.62-1.35-1.25-2.7-1.89-4.04-.16-.35-.33-.69-.49-1.04-.8-1.66-1.6-3.31-2.42-4.95-.14-.28-.28-.56-.42-.84-.69-1.38-1.39-2.75-2.1-4.12-.22-.43-.44-.85-.66-1.28-.77-1.47-1.54-2.93-2.33-4.38-.09-.16-.17-.32-.25-.47-.88-1.62-1.77-3.24-2.68-4.85-.2-.36-.41-.72-.61-1.08-.73-1.29-1.47-2.57-2.21-3.85-.22-.38-.44-.75-.66-1.13-.94-1.6-1.89-3.19-2.85-4.77,0-.02-.02-.03-.03-.05-.94-1.54-1.89-3.08-2.85-4.61-.24-.38-.48-.76-.72-1.14-.82-1.29-1.64-2.57-2.47-3.85-.18-.28-.36-.56-.55-.84-1.01-1.55-2.04-3.08-3.07-4.61-.16-.23-.31-.46-.47-.69-.89-1.3-1.78-2.59-2.68-3.88-.25-.36-.51-.73-.77-1.09-.99-1.41-2-2.81-3.01-4.21-.06-.08-.12-.16-.18-.24-1.09-1.5-2.2-3-3.32-4.48-.23-.3-.46-.61-.69-.91-.92-1.21-1.84-2.42-2.77-3.62-.24-.31-.48-.62-.72-.93-2.27-2.91-4.59-5.78-6.94-8.61-.27-.32-.54-.64-.8-.96-1.01-1.21-2.03-2.41-3.05-3.6-.18-.22-.37-.43-.55-.65-1.22-1.41-2.45-2.81-3.69-4.21-.16-.18-.33-.37-.49-.55-1.07-1.2-2.15-2.39-3.24-3.57-.28-.3-.55-.6-.83-.9-1.22-1.32-2.44-2.63-3.68-3.93-.02-.02-.04-.04-.06-.07-1.29-1.36-2.6-2.71-3.91-4.04-.25-.25-.5-.5-.74-.75-1.09-1.11-2.2-2.21-3.31-3.31-.25-.25-.5-.5-.76-.75-2.65-2.6-5.34-5.16-8.06-7.68-.29-.26-.57-.53-.86-.79-1.2-1.1-2.4-2.19-3.62-3.28-.17-.16-.35-.31-.52-.47-1.41-1.25-2.82-2.49-4.25-3.72-.17-.15-.35-.3-.52-.45-1.24-1.06-2.48-2.12-3.74-3.17-.29-.25-.59-.49-.88-.74-2.86-2.38-5.76-4.72-8.7-7.01-.27-.21-.53-.41-.8-.62-1.25-.97-2.51-1.94-3.78-2.9-.26-.2-.52-.4-.79-.59-2.98-2.24-6-4.44-9.06-6.6-.31-.22-.61-.43-.92-.65-1.36-.95-2.73-1.9-4.11-2.84-.17-.11-.33-.23-.5-.34-1.57-1.07-3.15-2.12-4.74-3.16-.19-.12-.37-.24-.56-.36-1.38-.9-2.77-1.79-4.17-2.68-.31-.2-.63-.4-.94-.6-3.17-2-6.37-3.95-9.61-5.85-.29-.17-.57-.33-.86-.5-1.39-.81-2.78-1.61-4.18-2.4-.28-.16-.56-.32-.84-.47-1.36-.77-2.74-1.52-4.11-2.27-112.09,61.17-188.56,179.4-190.37,315.66,0,.41,0,.82-.01,1.24-.01,1.04-.02,2.08-.02,3.13,0,1.1.02,2.2.03,3.29,0,1.13.02,2.27.04,3.4.02.79.04,1.57.06,2.35,1.7,1.04,3.41,2.06,5.13,3.07.06.04.12.07.18.11,1.59.94,3.2,1.86,4.81,2.77.2.11.39.22.59.33,3.38,1.91,6.78,3.76,10.22,5.56.19.1.38.2.58.3,1.59.83,3.19,1.65,4.79,2.45.14.07.29.15.43.22,3.47,1.74,6.97,3.42,10.5,5.04.25.12.51.23.76.35,3.52,1.61,7.07,3.18,10.66,4.68.19.08.37.16.56.23,1.6.67,3.21,1.33,4.82,1.97.27.11.54.22.81.32,3.57,1.42,7.16,2.79,10.79,4.1.31.11.62.22.93.34,1.6.57,3.21,1.14,4.82,1.69.22.08.45.15.67.23,1.84.63,3.7,1.24,5.55,1.84.15.05.3.09.45.14,1.66.53,3.32,1.05,4.99,1.56.37.11.74.23,1.12.34,1.77.53,3.54,1.06,5.32,1.57.04.01.08.02.12.04,1.86.53,3.73,1.04,5.6,1.55.35.09.7.19,1.05.28,1.54.41,3.09.81,4.64,1.19.38.1.76.19,1.14.29,1.87.46,3.75.91,5.63,1.35.03,0,.07.01.1.02,1.8.41,3.61.81,5.42,1.2.45.1.9.19,1.35.29,1.57.33,3.14.65,4.72.96.32.06.64.13.95.19,1.87.36,3.75.71,5.63,1.04.35.06.71.12,1.06.18,1.55.27,3.1.53,4.65.78.49.08.98.16,1.47.23,1.79.28,3.58.55,5.38.8.09.01.18.03.27.04,1.89.27,3.79.51,5.69.75.49.06.98.12,1.47.18,1.49.18,2.98.35,4.48.51.47.05.95.1,1.42.15,1.9.2,3.79.38,5.7.55.28.02.56.05.84.07,1.64.14,3.29.27,4.93.39.55.04,1.1.08,1.65.11,1.58.11,3.16.2,4.75.29.36.02.72.04,1.09.06,1.91.1,3.83.18,5.74.25.48.02.96.03,1.43.05,1.51.05,3.02.09,4.53.12.55.01,1.1.02,1.65.03,1.94.03,3.88.05,5.83.05s3.9-.02,5.85-.05c.55,0,1.1-.02,1.65-.03,1.53-.03,3.06-.07,4.59-.12.46-.01.92-.03,1.38-.04,1.93-.07,3.85-.15,5.77-.25.38-.02.77-.04,1.15-.07,1.58-.09,3.16-.18,4.73-.29.54-.04,1.08-.07,1.61-.11,1.75-.13,3.5-.26,5.24-.41.18-.02.36-.03.53-.04,1.93-.17,3.85-.36,5.76-.56.47-.05.95-.1,1.42-.15,1.54-.17,3.08-.34,4.61-.53.44-.05.88-.1,1.32-.16,1.92-.24,3.84-.49,5.75-.76.19-.03.38-.06.57-.08,1.73-.25,3.45-.51,5.17-.78.46-.07.92-.15,1.38-.22,1.7-.27,3.4-.56,5.1-.86.2-.03.4-.07.6-.1,1.92-.34,3.84-.7,5.76-1.07.33-.06.66-.13.99-.2,1.62-.32,3.24-.65,4.85-.99.36-.08.73-.15,1.09-.23,3.81-.82,7.6-1.69,11.37-2.63.33-.08.67-.17,1-.25,1.73-.43,3.45-.88,5.17-1.34.15-.04.31-.08.46-.12,1.94-.52,3.87-1.06,5.79-1.61.12-.04.25-.07.37-.11,1.76-.51,3.52-1.03,5.27-1.56.26-.08.52-.16.79-.24,3.78-1.16,7.53-2.38,11.26-3.65.19-.06.38-.13.56-.19,1.78-.61,3.56-1.24,5.33-1.88.09-.03.18-.06.27-.1,3.77-1.37,7.52-2.8,11.23-4.29.15-.06.3-.12.45-.18,3.74-1.5,7.44-3.07,11.12-4.69.03-.01.05-.02.08-.04,1.84-.81,3.67-1.64,5.49-2.48.03-.01.07-.03.1-.04,3.68-1.7,7.33-3.47,10.95-5.29.06-.03.11-.06.17-.09,5.45-2.75,10.81-5.62,16.1-8.63,0,0,0,0,.01,0,3.54-2.01,7.05-4.09,10.51-6.22,0-.08,0-.16,0-.24.05-2.56.09-5.12.09-7.7,0-1.94-.02-3.88-.05-5.81,0-.55-.02-1.1-.03-1.65Z" stroke="#fff" stroke-miterlimit="10"/></g><g id="Layer_4"><path d="M489.51,190.43v19.72h-10.9v-51.4h14.98c6.98,0,12.15,1.27,15.5,3.81,3.35,2.54,5.03,6.4,5.03,11.58,0,3.02-.83,5.71-2.5,8.07-1.66,2.36-4.02,4.2-7.07,5.54l15.12,22.39h-12.09l-12.27-19.72h-5.8ZM489.51,181.57h3.52c3.45,0,5.99-.57,7.63-1.72,1.64-1.15,2.46-2.95,2.46-5.41s-.84-4.17-2.51-5.2c-1.68-1.03-4.27-1.55-7.79-1.55h-3.3v13.89Z" fill="#fff"/><path d="M543.08,210.86c-6.33,0-11.27-1.75-14.84-5.24-3.56-3.49-5.34-8.44-5.34-14.84s1.65-11.68,4.94-15.28c3.29-3.6,7.85-5.4,13.66-5.4s9.88,1.58,12.97,4.75,4.64,7.54,4.64,13.11v5.2h-25.35c.12,3.05,1.02,5.43,2.71,7.14,1.69,1.71,4.05,2.57,7.1,2.57,2.37,0,4.61-.25,6.71-.74s4.31-1.28,6.61-2.36v8.3c-1.88.94-3.88,1.63-6.01,2.09s-4.73.69-7.8.69ZM541.57,177.74c-2.27,0-4.06.72-5.34,2.16-1.29,1.44-2.03,3.49-2.21,6.13h15.05c-.05-2.65-.74-4.69-2.07-6.13s-3.14-2.16-5.41-2.16Z" fill="#fff"/><path d="M580.28,210.86c-4.62,0-8.24-1.79-10.88-5.38s-3.96-8.55-3.96-14.91,1.34-11.47,4.03-15.06c2.68-3.6,6.38-5.4,11.09-5.4,4.95,0,8.72,1.92,11.32,5.77h.35c-.54-2.93-.81-5.54-.81-7.84v-12.59h10.76v54.7h-8.23l-2.07-5.1h-.46c-2.44,3.87-6.15,5.8-11.14,5.8ZM584.04,202.32c2.74,0,4.75-.8,6.03-2.39,1.28-1.59,1.97-4.3,2.09-8.12v-1.16c0-4.22-.65-7.24-1.95-9.07s-3.42-2.74-6.35-2.74c-2.39,0-4.25,1.01-5.57,3.04-1.32,2.03-1.99,4.97-1.99,8.84s.67,6.77,2,8.7,3.25,2.9,5.73,2.9Z" fill="#fff"/><path d="M116.19,771.54l13.85-8c6.31-3.64,11.41-5.39,15.3-5.24,3.89.15,6.96,2.18,9.23,6.1,1.54,2.66,2.17,5.2,1.91,7.63s-1.33,4.41-3.2,5.95l.18.3c3.18-1,5.9-1,8.14,0,2.24,1,4.19,2.94,5.84,5.8,2.34,4.06,2.71,8.07,1.08,12.04-1.62,3.97-4.95,7.4-9.98,10.31l-16.65,9.62-25.7-44.51ZM135.8,783.72l5.48-3.16c2.56-1.48,4.18-2.94,4.87-4.4.69-1.45.51-3.09-.55-4.92-.98-1.71-2.31-2.57-3.99-2.59-1.68-.02-3.86.75-6.56,2.31l-4.96,2.87,5.71,9.9ZM140.13,791.21l6.7,11.6,6.15-3.55c2.6-1.5,4.23-3.11,4.89-4.81s.4-3.59-.78-5.64c-2.13-3.69-5.84-4.02-11.12-.97l-5.85,3.38Z" fill="#fff"/><path d="M192.34,786.92l-9.29,5.36-27.35-47.38,9.29-5.36,27.35,47.38Z" fill="#fff"/><path d="M226.19,767.38l-3.76-3.63-.49.28c-.08,2.16-.79,4.19-2.11,6.11-1.33,1.92-3.16,3.55-5.49,4.9-4,2.31-7.63,2.98-10.9,2.01-3.27-.97-6.06-3.46-8.38-7.48l-12.81-22.2,9.29-5.36,11.48,19.88c1.42,2.46,2.92,4.05,4.5,4.77,1.58.72,3.33.54,5.24-.57,2.6-1.5,3.97-3.45,4.13-5.85.16-2.4-.93-5.61-3.25-9.63l-9.25-16.01,9.29-5.36,19.65,34.04-7.12,4.11Z" fill="#fff"/><path d="M258.82,749.35c-5.48,3.16-10.64,4.12-15.47,2.88-4.83-1.24-8.85-4.64-12.05-10.18-3.29-5.7-4.41-10.94-3.36-15.7,1.05-4.76,4.1-8.6,9.13-11.5,4.81-2.78,9.35-3.57,13.61-2.38s7.79,4.21,10.58,9.04l2.6,4.51-21.95,12.67c1.62,2.58,3.6,4.19,5.91,4.83,2.32.64,4.79.2,7.43-1.33,2.05-1.18,3.87-2.52,5.45-4s3.1-3.26,4.55-5.34l4.15,7.19c-1.16,1.75-2.54,3.36-4.16,4.82s-3.76,2.96-6.42,4.5ZM240.95,721.43c-1.97,1.14-3.15,2.65-3.55,4.54-.4,1.89-.01,4.03,1.15,6.42l13.03-7.52c-1.37-2.27-2.99-3.7-4.86-4.28-1.88-.58-3.8-.3-5.77.83Z" fill="#fff"/><path d="M810.28,707.49l19.87-12.97,10.17,5.87-30.46,18.66-10,17.32-9.38-5.41,9.83-17.02,1.11-36.02,10.23,5.91-1.36,23.65Z"/><path d="M833.02,756.34c-5.48-3.16-8.89-7.15-10.23-11.96-1.34-4.8-.41-9.98,2.79-15.52,3.29-5.7,7.26-9.29,11.92-10.76,4.65-1.47,9.49-.75,14.53,2.16,4.81,2.78,7.76,6.31,8.86,10.6s.25,8.85-2.54,13.68l-2.6,4.51-21.95-12.67c-1.42,2.7-1.83,5.21-1.22,7.53.61,2.33,2.23,4.25,4.87,5.77,2.05,1.18,4.11,2.09,6.18,2.72s4.37,1.05,6.9,1.27l-4.15,7.18c-2.09-.12-4.18-.52-6.25-1.19s-4.44-1.77-7.1-3.31ZM848.27,726.91c-1.97-1.14-3.87-1.4-5.71-.8s-3.5,2.01-4.99,4.21l13.03,7.52c1.28-2.32,1.71-4.43,1.27-6.35-.44-1.92-1.64-3.44-3.61-4.58Z"/><path d="M864.09,773.47l-9.29-5.36,27.35-47.38,9.29,5.36-27.35,47.38Z"/><path d="M883.12,784.46l-9.29-5.36,27.35-47.38,9.29,5.36-27.35,47.38Z"/><path d="M933.66,790.86c-3.2,5.54-7.16,9.03-11.89,10.47-4.73,1.44-9.7.65-14.92-2.36-3.27-1.89-5.74-4.27-7.41-7.14-1.67-2.87-2.4-6.04-2.19-9.49s1.34-6.96,3.4-10.54c3.21-5.56,7.16-9.05,11.84-10.46,4.68-1.41,9.65-.6,14.91,2.44,3.27,1.89,5.74,4.26,7.42,7.12,1.68,2.86,2.42,6.01,2.22,9.44-.2,3.43-1.32,6.94-3.39,10.51ZM910.12,777.27c-1.95,3.37-2.86,6.24-2.75,8.6.11,2.36,1.41,4.27,3.91,5.71,2.48,1.43,4.75,1.6,6.83.51,2.08-1.09,4.09-3.33,6.05-6.72,1.95-3.37,2.86-6.21,2.73-8.53-.12-2.32-1.43-4.2-3.93-5.64-2.48-1.43-4.75-1.62-6.81-.58-2.06,1.04-4.07,3.26-6.03,6.65Z"/><path d="M958.84,828.17l4.25-13.42,5.21-17.04-.27-.16-21.77,23.36-9.99-5.77,9.97-39.63,9.26,5.34-4.77,17.34c-.58,2.04-2.12,6.13-4.59,12.25l.24.14c.97-1.49,2.74-3.74,5.3-6.72l1.98-2.31,13.62-13.89,10.23,5.91-5.43,18.62c-.4,1.26-1.05,3.07-1.94,5.44-.89,2.37-1.66,4.15-2.3,5.35l.24.14c1.27-1.68,2.77-3.55,4.5-5.62,1.74-2.07,3.04-3.54,3.93-4.41l12.78-12.71,9.1,5.26-29.46,28.38-10.11-5.84Z"/><path d="M484.83,817.53h13.59v17.77c-2.2.72-4.28,1.22-6.22,1.51s-3.93.43-5.96.43c-5.17,0-9.12-1.52-11.85-4.56s-4.09-7.4-4.09-13.09,1.58-9.84,4.75-12.94,7.55-4.64,13.16-4.64c3.52,0,6.91.7,10.17,2.11l-2.41,5.81c-2.5-1.25-5.1-1.88-7.8-1.88-3.14,0-5.66,1.05-7.55,3.16s-2.84,4.95-2.84,8.51.76,6.56,2.29,8.52,3.74,2.94,6.64,2.94c1.52,0,3.05-.16,4.62-.47v-7.15h-6.49v-6.05Z" fill="#fff"/><path d="M520.64,810.08c.97,0,1.77.07,2.41.21l-.54,6.7c-.58-.16-1.28-.23-2.11-.23-2.28,0-4.06.59-5.33,1.76s-1.91,2.81-1.91,4.92v13.34h-7.15v-26.2h5.41l1.05,4.41h.35c.81-1.47,1.91-2.65,3.29-3.55s2.89-1.35,4.51-1.35Z" fill="#fff"/><path d="M539.2,837.24c-4.22,0-7.52-1.16-9.89-3.49s-3.56-5.62-3.56-9.89,1.1-7.79,3.29-10.18,5.23-3.6,9.11-3.6,6.59,1.05,8.65,3.16c2.06,2.11,3.09,5.02,3.09,8.74v3.47h-16.9c.08,2.03.68,3.62,1.8,4.76s2.7,1.71,4.73,1.71c1.58,0,3.07-.16,4.48-.49,1.41-.33,2.87-.85,4.41-1.57v5.53c-1.25.62-2.59,1.09-4.01,1.39-1.42.3-3.16.46-5.2.46ZM538.19,815.17c-1.52,0-2.7.48-3.56,1.44s-1.35,2.32-1.48,4.09h10.03c-.03-1.77-.49-3.13-1.38-4.09s-2.09-1.44-3.61-1.44Z" fill="#fff"/><path d="M567.56,837.24c-4.22,0-7.52-1.16-9.89-3.49s-3.56-5.62-3.56-9.89,1.1-7.79,3.29-10.18,5.23-3.6,9.11-3.6,6.59,1.05,8.65,3.16,3.09,5.02,3.09,8.74v3.47h-16.9c.08,2.03.68,3.62,1.8,4.76s2.7,1.71,4.73,1.71c1.58,0,3.07-.16,4.48-.49s2.88-.85,4.41-1.57v5.53c-1.25.62-2.59,1.09-4.01,1.39s-3.16.46-5.2.46ZM566.55,815.17c-1.52,0-2.7.48-3.56,1.44s-1.35,2.32-1.48,4.09h10.03c-.03-1.77-.49-3.13-1.38-4.09s-2.09-1.44-3.61-1.44Z" fill="#fff"/><path d="M608.25,836.78h-7.15v-15.3c0-1.89-.34-3.31-1.01-4.25s-1.74-1.42-3.21-1.42c-2,0-3.45.67-4.34,2s-1.34,3.55-1.34,6.64v12.33h-7.15v-26.2h5.46l.96,3.35h.4c.8-1.27,1.89-2.22,3.29-2.87s2.99-.97,4.77-.97c3.05,0,5.36.82,6.94,2.47s2.37,4.03,2.37,7.14v17.09Z" fill="#fff"/><path d="M257.85,392.73c-1.84,3.19-4.25,5.06-7.22,5.6s-6.3-.25-9.98-2.38l-2.7-1.56-6.09,10.55-6.29-3.63,17.13-29.67,9.48,5.47c3.6,2.08,5.89,4.43,6.87,7.06.98,2.63.58,5.48-1.19,8.55ZM240.92,389.24l2.07,1.2c1.93,1.12,3.6,1.57,5.01,1.36,1.4-.21,2.52-1.04,3.37-2.51.85-1.47,1.08-2.8.68-3.96-.4-1.17-1.46-2.25-3.18-3.24l-2.86-1.65-5.09,8.81Z" fill="#fff"/><path d="M267.25,425.38l.84-3.38-.33-.19c-1.27.67-2.68.94-4.23.82s-3.1-.64-4.66-1.54c-2.67-1.54-4.26-3.41-4.79-5.62-.53-2.21-.02-4.65,1.53-7.33l8.54-14.8,6.19,3.57-7.65,13.25c-.95,1.64-1.36,3.03-1.25,4.19.11,1.16.8,2.1,2.07,2.83,1.73,1,3.32,1.14,4.76.43,1.44-.71,2.93-2.41,4.48-5.09l6.16-10.68,6.19,3.57-13.1,22.69-4.75-2.74Z" fill="#fff"/><path d="M304.51,416.07c.84.48,1.5.95,1.98,1.39l-3.82,5.54c-.42-.42-.99-.84-1.71-1.26-1.98-1.14-3.81-1.52-5.5-1.14-1.69.38-3.06,1.48-4.12,3.31l-6.67,11.55-6.19-3.57,13.1-22.69,4.69,2.71-1.29,4.34.3.18c1.44-.87,2.98-1.34,4.63-1.43,1.65-.09,3.17.28,4.58,1.09Z" fill="#fff"/><path d="M309.6,450.38c-2.67-1.54-4.2-3.71-4.6-6.52l-.33-.19c-.88,2.02-1.4,3.18-1.57,3.48l-5.31,9.19-6.19-3.57,18.87-32.68,5.03,2.91-.83,3.45.28.16c2.74-1.41,5.54-1.29,8.38.35,2.68,1.55,4.18,3.79,4.5,6.74.32,2.95-.58,6.26-2.71,9.94-1.4,2.42-2.97,4.32-4.71,5.7-1.74,1.38-3.54,2.15-5.39,2.33s-3.66-.25-5.44-1.27ZM318.5,430.75c-1.53-.88-2.92-1.06-4.16-.52-1.25.53-2.51,1.88-3.79,4.03l-.39.67c-1.41,2.44-2.05,4.39-1.94,5.86.11,1.47.96,2.66,2.53,3.57,2.77,1.6,5.48.12,8.12-4.46,1.29-2.23,1.92-4.11,1.88-5.62s-.79-2.69-2.25-3.53Z" fill="#fff"/><path d="M329.87,461.54l-6.19-3.57,18.23-31.58,6.19,3.57-18.23,31.58Z" fill="#fff"/><path d="M346.4,471.62c-3.65-2.11-5.93-4.77-6.82-7.97-.89-3.2-.27-6.65,1.86-10.35,2.2-3.8,4.84-6.19,7.94-7.17,3.1-.98,6.33-.5,9.68,1.44,3.21,1.85,5.18,4.21,5.91,7.06s.17,5.9-1.69,9.12l-1.73,3-14.63-8.45c-.95,1.8-1.22,3.47-.82,5.02.4,1.55,1.49,2.83,3.25,3.85,1.37.79,2.74,1.39,4.12,1.81,1.38.42,2.92.7,4.6.84l-2.77,4.79c-1.39-.08-2.78-.35-4.17-.8-1.38-.45-2.96-1.18-4.73-2.21ZM356.57,452c-1.31-.76-2.58-.94-3.81-.53-1.22.4-2.33,1.34-3.32,2.8l8.69,5.02c.86-1.54,1.14-2.96.85-4.23-.29-1.28-1.09-2.3-2.41-3.05Z" fill="#fff"/><path d="M731.79,445.12c2.84,4.91,3.8,9.39,2.89,13.44-.91,4.04-3.64,7.38-8.19,10-4.55,2.62-8.8,3.32-12.76,2.09s-7.36-4.32-10.22-9.26c-2.85-4.94-3.81-9.42-2.87-13.43.94-4.02,3.69-7.34,8.25-9.97,4.56-2.63,8.81-3.33,12.74-2.1,3.93,1.23,7.32,4.31,10.16,9.23ZM710.14,457.63c1.91,3.32,3.98,5.45,6.21,6.4,2.23.95,4.59.71,7.1-.74,5.02-2.9,5.6-7.68,1.75-14.35-3.86-6.68-8.29-8.59-13.28-5.7-2.5,1.45-3.9,3.38-4.2,5.8-.3,2.42.51,5.29,2.42,8.6Z" fill="#fff"/><path d="M745.36,426.3c.84-.48,1.57-.83,2.2-1.02l2.88,6.08c-.58.15-1.23.44-1.94.85-1.98,1.14-3.22,2.54-3.74,4.19-.52,1.65-.25,3.39.81,5.22l6.67,11.55-6.19,3.57-13.1-22.69,4.69-2.71,3.12,3.29.3-.18c-.03-1.68.33-3.25,1.08-4.72.75-1.47,1.83-2.61,3.23-3.42Z" fill="#fff"/><path d="M778.93,437.75l-2.98-2.39-.16.09c-.28,1.91-.83,3.44-1.64,4.59-.81,1.14-2.1,2.23-3.87,3.25-2.18,1.26-4.25,1.62-6.22,1.1-1.97-.52-3.62-1.93-4.95-4.23-1.39-2.41-1.57-4.67-.55-6.79,1.02-2.12,3.2-4.22,6.53-6.3l3.87-2.39-.57-1c-1.33-2.3-3.17-2.77-5.52-1.41-1.81,1.05-3.63,2.83-5.44,5.33l-4.46-3c1.82-2.88,4.32-5.23,7.5-7.07,3.04-1.76,5.76-2.44,8.15-2.05,2.39.39,4.37,1.94,5.93,4.64l8.73,15.12-4.32,2.5ZM771.03,428.29l-2.35,1.46c-1.77,1.09-2.92,2.19-3.46,3.29-.54,1.1-.45,2.26.25,3.48,1.01,1.75,2.51,2.04,4.52.88,1.43-.83,2.34-1.9,2.73-3.22.38-1.32.18-2.67-.61-4.03l-1.08-1.87Z" fill="#fff"/><path d="M810.57,419.48l-6.19,3.57-7.65-13.25c-.95-1.64-1.95-2.7-3-3.18-1.05-.48-2.22-.36-3.49.38-1.73,1-2.65,2.3-2.75,3.9-.1,1.6.62,3.74,2.17,6.42l6.16,10.68-6.19,3.57-13.1-22.69,4.73-2.73,2.51,2.42.35-.2c.06-1.49.53-2.87,1.42-4.13s2.1-2.34,3.64-3.23c2.64-1.52,5.05-1.97,7.25-1.33,2.19.64,4.06,2.3,5.62,5l8.54,14.8Z" fill="#fff"/><path d="M836.8,404.39c1.88,3.26,2.36,6.28,1.43,9.07s-3.27,5.26-7.04,7.43c-3.31,1.91-6.4,3.1-9.26,3.56l-2.86-4.95c3.42-.42,6.71-1.54,9.86-3.36,3.18-1.84,3.78-4.47,1.79-7.91l-.26-.45-1.42-2.89-.18.11c-.16,3.07-1.66,5.42-4.5,7.06-2.72,1.57-5.43,1.74-8.14.5-2.71-1.23-5.1-3.66-7.19-7.27-2.15-3.72-3.05-7.07-2.7-10.04.35-2.97,1.88-5.24,4.6-6.81,2.79-1.61,5.62-1.77,8.5-.47l.16-.09-1.17-3.2,5.24-3.02,13.12,22.73ZM823.78,405.93c1.66-.96,2.58-2.13,2.75-3.49.17-1.37-.37-3.12-1.6-5.26l-.43-.75c-1.4-2.42-2.78-3.95-4.14-4.58-1.36-.63-2.88-.46-4.54.5-2.91,1.68-3.04,4.81-.4,9.38,1.31,2.27,2.66,3.76,4.03,4.47,1.37.71,2.82.62,4.35-.27Z" fill="#fff"/><path d="M853.76,395.09c-3.65,2.11-7.09,2.75-10.31,1.92s-5.9-3.09-8.03-6.78c-2.2-3.8-2.94-7.29-2.24-10.47s2.73-5.73,6.09-7.67c3.21-1.85,6.23-2.38,9.07-1.58,2.84.8,5.19,2.8,7.05,6.02l1.73,3-14.63,8.45c1.08,1.72,2.4,2.79,3.94,3.22s3.2.13,4.96-.89c1.37-.79,2.58-1.68,3.63-2.66,1.05-.99,2.06-2.18,3.03-3.56l2.77,4.79c-.77,1.17-1.69,2.24-2.77,3.21-1.08.98-2.5,1.97-4.28,3ZM841.84,376.47c-1.31.76-2.1,1.77-2.37,3.03-.26,1.26,0,2.69.77,4.28l8.69-5.02c-.91-1.51-1.99-2.46-3.24-2.85-1.25-.39-2.53-.2-3.85.56Z" fill="#fff"/><path d="M479.1,532.26h10.66c4.86,0,8.39.69,10.58,2.07s3.29,3.58,3.29,6.6c0,2.05-.48,3.73-1.44,5.04s-2.24,2.1-3.83,2.37v.23c2.17.48,3.74,1.39,4.7,2.72s1.44,3.09,1.44,5.3c0,3.12-1.13,5.56-3.39,7.31s-5.32,2.62-9.2,2.62h-12.82v-34.27ZM486.36,545.83h4.22c1.97,0,3.39-.3,4.28-.91s1.32-1.62,1.32-3.02c0-1.31-.48-2.25-1.44-2.82s-2.48-.86-4.56-.86h-3.82v7.62ZM486.36,551.6v8.93h4.73c2,0,3.48-.38,4.43-1.15s1.43-1.94,1.43-3.52c0-2.84-2.03-4.27-6.09-4.27h-4.5Z" fill="#fff"/><path d="M517.94,566.53h-7.15v-36.47h7.15v36.47Z" fill="#fff"/><path d="M542.08,566.53l-1.38-3.56h-.19c-1.2,1.52-2.44,2.57-3.71,3.15s-2.93.88-4.98.88c-2.52,0-4.5-.72-5.94-2.16s-2.17-3.48-2.17-6.14.97-4.83,2.92-6.15,4.88-2.05,8.8-2.19l4.55-.14v-1.15c0-2.66-1.36-3.98-4.08-3.98-2.09,0-4.55.63-7.38,1.9l-2.37-4.83c3.02-1.58,6.36-2.37,10.03-2.37s6.21.77,8.09,2.3,2.81,3.86,2.81,6.98v17.46h-4.99ZM539.97,554.39l-2.77.09c-2.08.06-3.62.44-4.64,1.12s-1.52,1.73-1.52,3.14c0,2.02,1.16,3.02,3.47,3.02,1.66,0,2.98-.48,3.97-1.43s1.49-2.22,1.49-3.8v-2.16Z" fill="#fff"/><path d="M565.07,567c-8.16,0-12.23-4.48-12.23-13.43,0-4.45,1.11-7.86,3.33-10.21s5.4-3.53,9.54-3.53c3.03,0,5.75.59,8.16,1.78l-2.11,5.53c-1.12-.45-2.17-.82-3.14-1.11s-1.94-.43-2.91-.43c-3.72,0-5.58,2.64-5.58,7.92s1.86,7.69,5.58,7.69c1.38,0,2.65-.18,3.82-.55s2.34-.94,3.52-1.72v6.12c-1.16.73-2.32,1.24-3.5,1.52s-2.67.42-4.46.42Z" fill="#fff"/><path d="M585.97,552.28l3.12-3.98,7.34-7.97h8.06l-10.41,11.37,11.04,14.84h-8.25l-7.55-10.62-3.07,2.46v8.16h-7.15v-36.47h7.15v16.27l-.38,5.95h.09Z" fill="#fff"/></g></svg>